<svg width="45" height="45" viewBox="0 0 45 45" fill="none" xmlns="http://www.w3.org/2000/svg">
<path fill-rule="evenodd" clip-rule="evenodd" d="M4.99093 1.66713C4.32989 2.6113 3.87997 4.64215 3.95109 6.35427L4.07686 9.3743L4.3808 6.37452C4.93853 0.865435 5.27467 0.749944 20.7855 0.749944H34.5192V4.44642C34.5192 9.25281 35.7634 10.4992 40.5614 10.4992H44.2514V26.1318C44.2514 40.3237 44.1249 41.8791 42.8821 43.0055C41.6918 44.0847 39.2655 44.2467 24.2824 44.2467C3.68682 44.2467 4.76634 44.7364 4.38529 35.2249L4.13001 28.8728L3.97804 35.7671C3.76393 45.4519 2.73231 44.9966 24.9112 44.9966C42.4135 44.9966 42.686 44.9726 43.8344 43.3295C44.8016 41.9466 45 38.9146 45 25.4973V9.3308L40.3008 4.6654L35.6017 0H20.8791C6.51365 0 6.1281 0.0404967 4.99093 1.66713ZM40.4873 9.60753C36.3967 9.91726 35.2678 8.83884 35.2678 4.62115V1.17591L39.419 5.27511L43.5709 9.3743L40.4873 9.60753ZM1.25826 11.6774C-0.41942 13.3588 -0.41942 24.8884 1.25826 26.5698C2.99583 28.3096 24.8678 28.3096 26.6054 26.5698C28.2831 24.8884 28.2831 13.3588 26.6054 11.6774C24.8678 9.93751 2.99583 9.93751 1.25826 11.6774ZM6.81984 15.3739C6.81984 16.0735 6.11313 16.4988 4.94826 16.4988C3.91889 16.4988 3.07668 16.8362 3.07668 17.2487C3.07668 17.6612 3.91889 17.9987 4.94826 17.9987C6.11313 17.9987 6.81984 18.4239 6.81984 19.1236C6.81984 19.8233 6.11313 20.2485 4.94826 20.2485C3.451 20.2485 3.07668 20.6235 3.07668 22.1233C3.07668 23.2903 2.65221 23.9982 1.95374 23.9982C1.0711 23.9982 0.830793 22.9565 0.830793 19.1236V14.2489H3.82532C5.98811 14.2489 6.81984 14.5617 6.81984 15.3739ZM11.3116 14.9989C11.3116 15.4113 10.8063 15.7488 10.1887 15.7488C9.57106 15.7488 9.06573 15.4113 9.06573 14.9989C9.06573 14.5864 9.57106 14.2489 10.1887 14.2489C10.8063 14.2489 11.3116 14.5864 11.3116 14.9989ZM16.552 17.9987C16.552 21.4986 16.6771 21.7484 18.4236 21.7484C19.5885 21.7484 20.2952 22.1736 20.2952 22.8733C20.2952 23.6855 19.4635 23.9982 17.3007 23.9982H14.3061V19.1236C14.3061 15.2906 14.5465 14.2489 15.4291 14.2489C16.2773 14.2489 16.552 15.1654 16.552 17.9987ZM27.0329 15.3739C27.0329 16.0735 26.3262 16.4988 25.1613 16.4988C24.1319 16.4988 23.2897 16.8362 23.2897 17.2487C23.2897 17.6612 24.1319 17.9987 25.1613 17.9987C26.3262 17.9987 27.0329 18.4239 27.0329 19.1236C27.0329 19.8233 26.3262 20.2485 25.1613 20.2485C24.1319 20.2485 23.2897 20.586 23.2897 20.9984C23.2897 21.4109 24.1319 21.7484 25.1613 21.7484C26.3262 21.7484 27.0329 22.1736 27.0329 22.8733C27.0329 23.6855 26.2011 23.9982 24.0383 23.9982H21.0438V19.1236V14.2489H24.0383C26.2011 14.2489 27.0329 14.5617 27.0329 15.3739ZM11.3116 20.6235C11.3116 23.123 11.0204 23.9982 10.1887 23.9982C9.35695 23.9982 9.06573 23.123 9.06573 20.6235C9.06573 18.1239 9.35695 17.2487 10.1887 17.2487C11.0204 17.2487 11.3116 18.1239 11.3116 20.6235Z" fill="black"/>
</svg>
