<svg width="240" height="60" viewBox="0 0 240 60" fill="none" xmlns="http://www.w3.org/2000/svg">
<path fill-rule="evenodd" clip-rule="evenodd" d="M8.01383 1.37782C6.15925 2.43033 5.72342 4.47283 5.72342 12.1108C5.72342 19.5179 5.10959 22.5568 2.86105 26.2705L0 30.9985L3.11104 36.2304C5.2313 39.7936 6.45635 44.3098 6.955 50.3926L7.68663 59.323L12.4245 59.7096C16.2043 60.017 17.2959 59.5947 17.826 57.6173C18.7303 54.2493 17.1074 52.0448 14.4532 53.0373C12.5685 53.7428 12.2675 52.8485 12.2675 46.5335C12.2675 41.3424 11.4743 37.9616 9.54252 34.9151L6.81889 30.6183L9.54252 26.3215C11.3644 23.4485 12.2675 19.8828 12.2675 15.5618C12.2675 9.50188 12.486 9.0745 15.7803 8.6956C18.3181 8.40473 19.5523 7.34202 20.2263 4.86449C20.7381 2.98018 20.8271 1.11374 20.4213 0.718254C19.195 -0.47586 10.4626 -0.0114819 8.01383 1.37782ZM63.6264 3.16262C64.074 5.44879 63.4366 6.84064 61.3216 8.19168C59.713 9.21866 57.2944 12.6734 55.9463 15.8692C54.5982 19.0637 53.1926 21.6803 52.8222 21.6829C52.4531 21.6854 50.5632 18.1873 48.6235 13.9096C44.8934 5.68353 42.6213 4.72798 40.5272 10.5021C39.5731 13.1353 40.272 15.6957 44.0793 23.511L48.8211 33.2426L44.9405 43.4997C42.8072 49.1411 41.0612 54.831 41.0612 56.1451C41.0612 61.4535 43.8699 59.633 47.8657 51.7322C50.1915 47.1356 52.4557 43.376 52.8981 43.376C53.3405 43.376 55.1073 46.3 56.8245 49.8747C60.3308 57.1708 64.4837 60.9356 66.1707 58.347C66.9809 57.1032 67.202 57.107 67.2177 58.3662C67.2479 60.7888 75.9423 60.4087 76.9134 57.9426C77.3505 56.8327 77.7078 52.7732 77.7078 48.9204C77.7078 43.6872 78.5651 40.4914 81.095 36.2814L84.4835 30.6464L81.7494 26.3356C79.6056 22.9548 79.0167 19.9351 79.0167 12.3328C79.0167 1.24259 77.9552 0 68.4794 0C63.3594 0 63.0453 0.204122 63.6264 3.16262ZM211.206 10.2061C211.206 13.8918 211.752 15.3092 213.169 15.3092C214.249 15.3092 215.167 15.7391 215.21 16.266C215.252 16.7929 215.741 25.0853 216.297 34.6944C217.253 51.1977 218.529 56.1336 221.836 56.1336C222.469 56.1336 222.993 52.2578 223.004 47.5222L223.023 38.9108L228.998 48.1601C232.285 53.2465 235.534 57.4093 236.219 57.4093C239.166 57.4093 238.657 53.0756 234.737 44.7857L230.536 35.9025L235.269 31.852C239.602 28.1421 240 27.2273 240 20.9442C240 14.235 239.886 14.0283 234.804 11.5023C229.814 9.01965 216.402 5.10305 212.895 5.10305C211.798 5.10305 211.206 6.8904 211.206 10.2061ZM34.313 9.88717C32.9047 12.2665 31.9441 18.4616 31.3276 29.1384C30.0738 50.8711 29.6759 51.6097 23.7077 43.2981L18.9241 36.6374L17.2959 40.1202C15.8798 43.1501 16.0617 44.3264 18.6911 49.159C23.3112 57.6492 25.5872 59.1865 31.5082 57.8227C36.144 56.7562 36.5406 56.2931 37.3652 50.9846C38.6138 42.9486 38.6556 6.37882 37.4175 6.37882C36.8521 6.37882 35.4556 7.95821 34.313 9.88717ZM128.001 7.35478C125.181 9.2378 124.892 13.2386 126.198 32.2168C128.122 60.1471 128.161 60.2199 138.039 54.1421C144.45 50.1975 146.329 46.1711 149.243 30.1374C151.768 16.2481 151.701 16.0619 141.91 9.98795C136.247 6.4745 130.851 5.45389 128.001 7.35478ZM154.014 7.31012C149.746 7.68647 148.691 8.2274 149.285 9.73663C149.705 10.8032 151.381 12.1708 153.009 12.7742C155.78 13.8012 156.02 14.8256 156.798 28.942C157.256 37.2319 157.893 45.6085 158.217 47.5592C158.728 50.6529 158.307 51.2015 154.903 51.8649C150.809 52.6622 150.395 53.2299 152.052 55.77C153.272 57.6415 166.039 60.4827 168.722 59.4799C169.816 59.0704 170.633 57.1108 170.633 54.8974C170.633 51.5651 170.154 51.0305 167.165 51.0305H163.698L164.547 39.3522C165.016 32.93 165.398 24.8927 165.398 21.4915C165.398 15.822 165.657 15.3092 168.529 15.3092C170.79 15.3092 171.89 14.4085 172.494 12.0611C172.955 10.275 172.984 8.26567 172.56 7.5959C171.81 6.41454 165.289 6.31375 154.014 7.31012ZM179.097 8.97755C177.6 10.5888 176.654 13.6086 176.604 16.9332C176.542 20.9838 175.964 22.396 174.232 22.7213C171.192 23.2916 171.294 26.865 174.372 27.6496C176.417 28.1701 176.929 29.9945 177.59 39.1353C178.308 49.0493 180.267 54.8221 182.258 52.8817C182.687 52.4632 183.34 46.8524 183.707 40.4124C184.237 31.1452 184.785 28.7047 186.339 28.7047C187.508 28.7047 188.47 27.2847 188.716 25.1963C189.049 22.3705 188.604 21.688 186.425 21.688C183.992 21.688 183.721 20.92 183.721 14.0334C183.721 5.81748 182.882 4.90021 179.097 8.97755ZM102.956 8.95076C100.408 9.95095 100.136 10.8083 100.654 16.2047C100.977 19.5715 101.861 29.215 102.617 37.635C103.455 46.9698 104.667 53.605 105.72 54.6371C106.672 55.5671 109.976 56.6592 113.065 57.0636C117.574 57.653 119.027 57.3341 120.443 55.4459C123.731 51.0624 122.633 49.7548 115.663 49.7548H109.119V44.0138C109.119 38.3699 109.193 38.2729 113.438 38.2729C118.251 38.2729 120.898 36.3707 120.898 32.9147C120.898 31.2281 119.884 30.6183 117.079 30.6183C110.319 30.6183 109.119 29.5403 109.119 23.4651V17.8607H116.318H123.516V13.5626C123.516 9.58609 123.148 9.20463 118.608 8.47362C112.006 7.40963 106.452 7.57931 102.956 8.95076ZM72.4726 16.0695C72.4726 21.2491 73.2173 24.228 75.1884 26.9263L77.9055 30.6438L75.1884 34.9278C73.271 37.9514 72.4726 41.35 72.4726 46.4824C72.4726 53.0794 72.2383 53.6816 69.9518 52.9748C68.4035 52.4951 67.0123 52.9238 66.3448 54.0873C65.5791 55.4204 64.0504 52.675 61.1724 44.7971L57.0863 33.6151L62.489 21.2989C66.3605 12.4719 68.541 8.975 70.1822 8.95586C72.0944 8.93417 72.4726 10.1104 72.4726 16.0695ZM137.969 16.6143C142.538 18.9974 143.261 22.1217 141.664 32.5868C140.597 39.5742 139.302 43.3275 137.121 45.7399L134.069 49.1169L134.028 32.213C134.005 22.9153 134.32 15.3092 134.727 15.3092C135.134 15.3092 136.594 15.896 137.969 16.6143ZM230.122 18.0661C231.956 18.88 233.456 20.2196 233.456 21.0424C233.456 22.9893 224.777 32.7412 223.836 31.852C222.745 30.8186 224.505 16.5849 225.725 16.5849C226.31 16.5849 228.289 17.2509 230.122 18.0661ZM193.615 20.8383C191.63 22.2519 191.201 24.4947 191.073 34.1216C190.989 40.4927 191.407 46.1826 192.002 46.7644C192.596 47.3474 196.719 47.8284 201.164 47.8322L209.243 47.8411L209.081 35.4075C208.979 27.5629 208.315 22.2672 207.285 21.0552C205.256 18.6733 196.839 18.5394 193.615 20.8383ZM203.353 31.9336C203.353 38.8419 202.889 41.0783 201.334 41.66C198.263 42.8082 197.464 41.2276 197.468 34.0208C197.472 26.2093 198.612 22.9637 201.35 22.9637C202.959 22.9637 203.353 24.7294 203.353 31.9336Z" fill="#B2B2B4"/>
</svg>
