<svg width="35" height="9" viewBox="0 0 35 9" fill="none" xmlns="http://www.w3.org/2000/svg">
<path fill-rule="evenodd" clip-rule="evenodd" d="M0.411116 2.36C-0.602884 6.398 0.251116 8.473 3.05912 8.801C6.29512 9.178 8.20612 6.959 7.78712 3.31C7.51812 0.959 6.94012 0.449 4.24912 0.189C1.53812 -0.0729999 0.936116 0.268 0.411116 2.36ZM9.46512 4.5C9.46512 8.088 9.81312 9 11.1841 9C12.2511 9 12.6971 8.466 12.3611 7.59C12.0361 6.743 12.6471 5.918 13.8931 5.523C15.2411 5.095 15.9651 4.015 15.9651 2.433C15.9651 0.355 15.4911 0 12.7151 0C9.53012 0 9.46512 0.0900002 9.46512 4.5ZM17.4651 4.5C17.4651 8.91 17.5301 9 20.7151 9C22.5031 9 23.9651 8.592 23.9651 8.094C23.9651 7.595 23.0651 7.423 21.9651 7.71C20.6031 8.066 19.9651 7.741 19.9651 6.69C19.9651 5.841 20.7531 4.941 21.7151 4.689C23.3821 4.254 23.3821 4.226 21.7151 4.116C20.7531 4.052 19.9651 3.295 19.9651 2.433C19.9651 1.32 20.5461 1.05 21.9651 1.5C23.1121 1.864 23.9651 1.68 23.9651 1.067C23.9651 0.48 22.5031 0 20.7151 0C17.5301 0 17.4651 0.0900002 17.4651 4.5ZM25.4651 4.5C25.4651 7.972 25.8331 9 27.0761 9C28.2711 9 28.5771 8.289 28.2601 6.25L27.8321 3.5L29.6301 6.25C32.0891 10.01 32.9651 9.703 32.9651 5.083C32.9651 2.886 33.5141 0.945 34.2151 0.662C34.9031 0.385 34.5301 0.122 33.3881 0.079C31.6161 0.012 31.3711 0.477 31.7201 3.25L32.1291 6.5L30.0621 3.25C27.1111 -1.389 25.4651 -0.942 25.4651 4.5ZM6.24312 2.954C6.86912 5.348 4.69812 8.571 3.11712 7.594C1.87412 6.826 1.54112 2.757 2.63212 1.667C3.92312 0.375 5.73712 1.022 6.24312 2.954ZM14.7361 2.813C14.9541 3.466 14.4191 4 13.5481 4C12.6781 4 11.9651 3.287 11.9651 2.417C11.9651 0.651 14.1181 0.958 14.7361 2.813Z" fill="white"/>
</svg>
