<svg width="30" height="30" viewBox="0 0 30 30" fill="none" xmlns="http://www.w3.org/2000/svg">
<path fill-rule="evenodd" clip-rule="evenodd" d="M9.99524 0.688733C-2.03896 5.18254 -3.58251 21.556 7.42002 28.0071C14.4519 32.1303 23.8504 29.6367 28.0036 22.5459C32.1387 15.4865 29.633 6.10827 22.4924 1.92163C19.1659 -0.0289949 13.4323 -0.594349 9.99524 0.688733ZM21.8457 5.12268C25.2126 7.50261 26.7701 10.7617 26.7568 15.397C26.7471 18.5666 26.4697 19.5304 24.9437 21.6921C22.4597 25.2094 19.2572 26.7736 14.5655 26.7597C11.3974 26.75 10.434 26.4725 8.27339 24.9457C2.08223 20.5698 1.20409 11.8344 6.43067 6.6053C9.2295 3.80513 11.896 2.86731 16.158 3.18415C18.5193 3.3595 20.1269 3.90732 21.8457 5.12268ZM13.2903 6.63553C12.3577 7.56852 12.3577 9.69328 13.2903 10.6263C14.2228 11.5593 16.3465 11.5593 17.2791 10.6263C18.9743 8.9302 17.6973 5.90994 15.2847 5.90994C14.5866 5.90994 13.6891 6.23646 13.2903 6.63553ZM12.565 18.9101V24.6543H15.2847H18.0043V18.9101V13.1658H15.2847H12.565V18.9101Z" fill="#C2C4D4"/>
</svg>
