<svg width="35" height="25" viewBox="0 0 35 25" fill="none" xmlns="http://www.w3.org/2000/svg">
<path fill-rule="evenodd" clip-rule="evenodd" d="M0.601842 0.595075C0.0815992 1.10985 0 2.72083 0 12.4682C0 22.9133 0.0517178 23.7924 0.70068 24.3731C1.32436 24.9314 2.87321 25 14.8476 25C25.9125 25 28.39 24.9053 28.8348 24.4655C29.1321 24.1716 30.7181 20.2458 32.3589 15.742C35.2447 7.82197 35.3202 7.52841 34.6597 6.80682C34.1284 6.22652 33.4786 6.06061 31.7375 6.06061C29.622 6.06061 29.4983 6.00985 29.4983 5.14053C29.4983 3.22689 28.8156 3.0303 22.1739 3.0303H16.054L13.262 1.51515L10.4696 0H5.83683C2.13614 0 1.08301 0.119697 0.601842 0.595075ZM12.9781 2.36742L15.8984 3.97727L22.2195 4.16667C28.4168 4.35227 28.5429 4.37273 28.6631 5.20833L28.7854 6.06061L19.6604 6.06629C14.6415 6.0697 10.3014 6.21856 10.016 6.39735C9.73061 6.57614 8.09288 10.5186 6.37661 15.1576C4.6297 19.8803 2.9755 23.7678 2.61807 23.9902C2.15529 24.2784 1.8128 24.2511 1.37301 23.8902C0.84549 23.4572 0.766189 21.9909 0.766189 12.6701C0.766189 3.42765 0.849321 1.86591 1.36803 1.35265C1.83962 0.886742 2.84869 0.757576 6.01382 0.757576H10.0578L12.9781 2.36742Z" fill="#EAEBF2"/>
</svg>
