<svg width="35" height="35" viewBox="0 0 35 35" fill="none" xmlns="http://www.w3.org/2000/svg">
<path fill-rule="evenodd" clip-rule="evenodd" d="M1.38217 0.104156C1.20267 0.152363 0.879109 0.347301 0.663284 0.537402C-0.0718764 1.18468 -0.0133901 -0.360146 0.0136101 17.6882L0.0376195 33.749L0.280269 34.1157C0.413687 34.3173 0.687822 34.5915 0.889399 34.725L1.25606 34.9677L17.2691 34.9936C28.6289 35.0119 33.3784 34.9916 33.6134 34.9236C34.0341 34.802 34.5129 34.3832 34.7604 33.9204L34.9531 33.5602L34.9765 20.7186L35 7.87684L31.0633 3.93846L27.1264 0H25.9638H24.8012L24.7762 5.60803C24.7479 11.9398 24.7905 11.5552 24.0436 12.2127C23.7578 12.4644 23.5033 12.5991 23.183 12.6682C22.8622 12.7374 20.4233 12.7582 14.9009 12.7389C7.46178 12.7128 7.05819 12.7034 6.76567 12.5476C6.33595 12.3187 5.9875 11.9772 5.78839 11.5899C5.62674 11.2756 5.61786 10.9963 5.59859 5.65201L5.57837 0.0439845L3.6435 0.0302608C2.57933 0.0226955 1.56176 0.0559488 1.38217 0.104156ZM9.60772 0.74457C9.04626 0.988773 9.05233 0.93344 9.05233 5.80596C9.05233 9.57323 9.07168 10.2506 9.18575 10.4712C9.46384 11.0092 9.31565 10.9961 15.1823 10.9958C20.3715 10.9955 20.5381 10.9903 20.8176 10.8198C20.976 10.7233 21.1443 10.5427 21.1914 10.4185C21.3273 10.0611 21.3024 1.4192 21.1647 1.1436C21.1042 1.02264 20.9168 0.854443 20.7482 0.769905C20.4664 0.628451 20.017 0.616311 15.1647 0.61939C10.8671 0.622029 9.83586 0.645253 9.60772 0.74457ZM29.1075 15.9679C29.6548 16.251 29.6322 15.9144 29.6322 23.8233C29.6322 30.9858 29.6311 31.0307 29.4495 31.2616C29.3491 31.3895 29.1922 31.5339 29.1011 31.5827C28.9922 31.641 24.9982 31.6711 17.44 31.6705C4.69334 31.6696 5.65523 31.7157 5.39508 31.093C5.21303 30.657 5.20925 16.8553 5.39113 16.4199C5.65048 15.7991 4.82957 15.8387 17.4778 15.8365C27.4729 15.8347 28.8806 15.8506 29.1075 15.9679ZM8.5745 19.6124C7.83011 20.1032 7.97021 21.1843 8.81337 21.4559C9.00228 21.5168 11.9296 21.5406 17.6273 21.5277C26.0055 21.5088 26.1625 21.5053 26.3942 21.3325C26.5239 21.2357 26.6723 21.0656 26.724 20.9545C26.8608 20.6601 26.8389 20.1261 26.6806 19.9001C26.3457 19.4217 26.7363 19.4411 17.4338 19.4418C9.07968 19.4423 8.82507 19.4472 8.5745 19.6124ZM8.6351 26.1294C8.37521 26.2339 8.08551 26.7194 8.08551 27.0505C8.08551 27.3606 8.35305 27.8353 8.60326 27.9691C8.84372 28.0979 26.0439 28.106 26.284 27.9775C26.6142 27.8007 26.8179 27.4392 26.8179 27.0298C26.8179 26.7004 26.7696 26.5887 26.5189 26.3379L26.2199 26.0388L17.5262 26.0444C12.5789 26.0475 8.74741 26.0841 8.6351 26.1294Z" fill="#C2C4D4"/>
</svg>
