<svg width="35" height="35" viewBox="0 0 35 35" fill="none" xmlns="http://www.w3.org/2000/svg">
<path fill-rule="evenodd" clip-rule="evenodd" d="M10.1866 1.6072C7.09873 2.96713 6.91482 3.19903 6.91482 5.72821C6.91482 8.5312 5.64193 9.85482 2.94529 9.85482C1.93965 9.85482 1.45336 10.6804 0.820356 13.4597L0 17.0645L2.25167 18.9818L4.50404 20.8991L3.22219 23.1252L1.93965 25.3512L4.03497 28.2548C6.1723 31.217 6.53048 31.3533 9.84565 30.4655C11.5573 30.0073 11.8452 30.205 12.7827 32.4785C13.7966 34.9392 13.9116 35 17.5912 35C21.2487 35 21.3913 34.9274 22.3687 32.5553C23.4232 29.9947 24.289 29.6734 27.1551 30.7784C28.6904 31.3707 29.1278 31.1395 30.9883 28.7577C33.4004 25.669 33.4955 25.1026 31.9905 22.7732C30.9345 21.1394 30.9786 20.9927 33.1077 19.0209C35.3056 16.9849 35.3166 16.9409 34.5087 13.5246C33.762 10.3703 33.4803 10.0266 31.1529 9.44341C28.7951 8.8532 28.5968 8.60175 28.406 5.96081C28.2165 3.34431 27.9458 2.99018 25.0391 1.5576L21.8775 0L20.0412 1.78461C17.7751 3.98551 17.4155 3.9918 15.2183 1.86703L13.4584 0.165539L10.1866 1.6072ZM17.8116 6.36243C18.778 6.36243 20.2568 5.70656 21.0978 4.90541C23.2586 2.84769 25.5123 4.084 25.5123 7.32633C25.5123 9.88695 26.9319 11.5242 29.7353 12.1982C32.2687 12.8066 32.8735 15.9525 30.6542 16.9779C28.7655 17.8503 27.7358 21.9832 29.0162 23.5485C29.6437 24.3154 29.6575 24.9866 29.072 26.29C28.242 28.1375 27.9858 28.2227 25.8567 27.3573C24.0045 26.6036 20.8065 28.3135 19.9896 30.4934C19.1623 32.6999 16.1722 32.8787 15.5096 30.7609C14.7995 28.4909 11.2129 26.5889 9.14584 27.3859C7.79924 27.9049 7.2358 27.7819 6.50706 26.8083C5.3671 25.2849 5.29271 24.0598 6.3018 23.4276C7.49755 22.6782 6.47055 18.1925 4.83879 17.0331C2.78894 15.5774 3.31449 13.1991 5.88163 12.3135C8.71809 11.3356 10.3278 9.21431 9.89938 7.0204C9.39036 4.41158 12.1035 3.23465 14.4124 5.06187C15.3161 5.77711 16.8459 6.36243 17.8116 6.36243ZM13.061 12.5949C10.3499 15.3442 10.314 18.7786 12.9652 21.7876C14.4385 23.4598 15.4566 23.9641 17.359 23.9641C20.3305 23.9641 22.4506 22.9163 23.499 20.9299C25.0143 18.0591 24.4523 14.6052 22.1262 12.4979C19.1589 9.80942 15.7721 9.84574 13.061 12.5949ZM20.9959 14.8999C22.4389 16.9891 22.3459 18.6535 20.6907 20.332C17.9266 23.135 13.8028 21.2714 13.8028 17.2203C13.8028 14.4222 14.8814 13.3472 17.6897 13.3472C19.2174 13.3472 20.263 13.8382 20.9959 14.8999Z" fill="#8D8F9F"/>
</svg>
