<svg width="249" height="49" viewBox="0 0 249 49" fill="none" xmlns="http://www.w3.org/2000/svg">
<path d="M97.7589 39V42.125H79.577V39H97.7589ZM101.243 39V9.90909H118.799V13.0341H104.765V22.8636H117.89V25.9886H104.765V35.875H119.027V39H101.243ZM134.126 39H125.149V9.90909H134.524C137.346 9.90909 139.761 10.4915 141.768 11.6562C143.776 12.8116 145.314 14.4735 146.385 16.642C147.455 18.8011 147.99 21.3864 147.99 24.3977C147.99 27.428 147.45 30.0369 146.37 32.2244C145.291 34.4025 143.719 36.0786 141.654 37.2528C139.59 38.4176 137.081 39 134.126 39ZM128.671 35.875H133.899C136.304 35.875 138.297 35.411 139.879 34.483C141.46 33.5549 142.639 32.2339 143.416 30.5199C144.192 28.8059 144.581 26.7652 144.581 24.3977C144.581 22.0492 144.197 20.0275 143.43 18.3324C142.663 16.6278 141.517 15.321 139.993 14.4119C138.468 13.4934 136.569 13.0341 134.296 13.0341H128.671V35.875ZM157.421 9.90909V39H153.899V9.90909H157.421ZM162.894 13.0341V9.90909H184.712V13.0341H175.564V39H172.042V13.0341H162.894ZM213.483 24.4545C213.483 27.5227 212.929 30.1742 211.821 32.4091C210.713 34.6439 209.194 36.3674 207.262 37.5795C205.33 38.7917 203.123 39.3977 200.642 39.3977C198.161 39.3977 195.955 38.7917 194.023 37.5795C192.091 36.3674 190.571 34.6439 189.463 32.4091C188.355 30.1742 187.801 27.5227 187.801 24.4545C187.801 21.3864 188.355 18.7348 189.463 16.5C190.571 14.2652 192.091 12.5417 194.023 11.3295C195.955 10.1174 198.161 9.51136 200.642 9.51136C203.123 9.51136 205.33 10.1174 207.262 11.3295C209.194 12.5417 210.713 14.2652 211.821 16.5C212.929 18.7348 213.483 21.3864 213.483 24.4545ZM210.074 24.4545C210.074 21.9356 209.653 19.8097 208.81 18.0767C207.977 16.3438 206.845 15.0322 205.415 14.142C203.995 13.2519 202.404 12.8068 200.642 12.8068C198.881 12.8068 197.285 13.2519 195.855 14.142C194.435 15.0322 193.303 16.3438 192.461 18.0767C191.627 19.8097 191.211 21.9356 191.211 24.4545C191.211 26.9735 191.627 29.0994 192.461 30.8324C193.303 32.5653 194.435 33.8769 195.855 34.767C197.285 35.6572 198.881 36.1023 200.642 36.1023C202.404 36.1023 203.995 35.6572 205.415 34.767C206.845 33.8769 207.977 32.5653 208.81 30.8324C209.653 29.0994 210.074 26.9735 210.074 24.4545ZM219.407 39V9.90909H229.236C231.509 9.90909 233.374 10.2973 234.833 11.0739C236.291 11.8409 237.371 12.8968 238.071 14.2415C238.772 15.5862 239.122 17.1155 239.122 18.8295C239.122 20.5436 238.772 22.0634 238.071 23.3892C237.371 24.715 236.296 25.7566 234.847 26.5142C233.398 27.2623 231.547 27.6364 229.293 27.6364H221.338V24.4545H229.179C230.732 24.4545 231.982 24.2273 232.929 23.7727C233.886 23.3182 234.577 22.6742 235.003 21.8409C235.439 20.9981 235.657 19.9943 235.657 18.8295C235.657 17.6648 235.439 16.6468 235.003 15.7756C234.568 14.9044 233.872 14.232 232.915 13.7585C231.959 13.2756 230.694 13.0341 229.122 13.0341H222.929V39H219.407ZM233.1 25.9318L240.259 39H236.168L229.122 25.9318H233.1Z" fill="#5884F8"/>
<path d="M97.7589 39H98.7589V38H97.7589V39ZM97.7589 42.125V43.125H98.7589V42.125H97.7589ZM79.577 42.125H78.577V43.125H79.577V42.125ZM79.577 39V38H78.577V39H79.577ZM96.7589 39V42.125H98.7589V39H96.7589ZM97.7589 41.125H79.577V43.125H97.7589V41.125ZM80.577 42.125V39H78.577V42.125H80.577ZM79.577 40H97.7589V38H79.577V40ZM101.243 39H100.243V40H101.243V39ZM101.243 9.90909V8.90909H100.243V9.90909H101.243ZM118.799 9.90909H119.799V8.90909H118.799V9.90909ZM118.799 13.0341V14.0341H119.799V13.0341H118.799ZM104.765 13.0341V12.0341H103.765V13.0341H104.765ZM104.765 22.8636H103.765V23.8636H104.765V22.8636ZM117.89 22.8636H118.89V21.8636H117.89V22.8636ZM117.89 25.9886V26.9886H118.89V25.9886H117.89ZM104.765 25.9886V24.9886H103.765V25.9886H104.765ZM104.765 35.875H103.765V36.875H104.765V35.875ZM119.027 35.875H120.027V34.875H119.027V35.875ZM119.027 39V40H120.027V39H119.027ZM102.243 39V9.90909H100.243V39H102.243ZM101.243 10.9091H118.799V8.90909H101.243V10.9091ZM117.799 9.90909V13.0341H119.799V9.90909H117.799ZM118.799 12.0341H104.765V14.0341H118.799V12.0341ZM103.765 13.0341V22.8636H105.765V13.0341H103.765ZM104.765 23.8636H117.89V21.8636H104.765V23.8636ZM116.89 22.8636V25.9886H118.89V22.8636H116.89ZM117.89 24.9886H104.765V26.9886H117.89V24.9886ZM103.765 25.9886V35.875H105.765V25.9886H103.765ZM104.765 36.875H119.027V34.875H104.765V36.875ZM118.027 35.875V39H120.027V35.875H118.027ZM119.027 38H101.243V40H119.027V38ZM125.149 39H124.149V40H125.149V39ZM125.149 9.90909V8.90909H124.149V9.90909H125.149ZM141.768 11.6562L141.266 12.5212L141.269 12.523L141.768 11.6562ZM146.385 16.642L145.488 17.0846L145.489 17.0861L146.385 16.642ZM146.37 32.2244L147.266 32.6685L147.267 32.667L146.37 32.2244ZM141.654 37.2528L142.146 38.1238L142.149 38.1221L141.654 37.2528ZM128.671 35.875H127.671V36.875H128.671V35.875ZM139.879 34.483L139.373 33.6205L139.879 34.483ZM143.43 18.3324L142.518 18.7428L142.519 18.7447L143.43 18.3324ZM139.993 14.4119L139.476 15.2685L139.48 15.2708L139.993 14.4119ZM128.671 13.0341V12.0341H127.671V13.0341H128.671ZM134.126 38H125.149V40H134.126V38ZM126.149 39V9.90909H124.149V39H126.149ZM125.149 10.9091H134.524V8.90909H125.149V10.9091ZM134.524 10.9091C137.207 10.9091 139.441 11.4622 141.266 12.5212L142.27 10.7913C140.08 9.52079 137.484 8.90909 134.524 8.90909V10.9091ZM141.269 12.523C143.097 13.5749 144.501 15.0854 145.488 17.0846L147.281 16.1995C146.128 13.8615 144.454 12.0482 142.267 10.7895L141.269 12.523ZM145.489 17.0861C146.475 19.0771 146.99 21.5029 146.99 24.3977H148.99C148.99 21.2699 148.434 18.5252 147.281 16.198L145.489 17.0861ZM146.99 24.3977C146.99 27.3109 146.471 29.7613 145.474 31.7819L147.267 32.667C148.429 30.3126 148.99 27.5452 148.99 24.3977H146.99ZM145.474 31.7803C144.481 33.7843 143.047 35.3103 141.16 36.3836L142.149 38.1221C144.391 36.8469 146.101 35.0206 147.266 32.6685L145.474 31.7803ZM141.163 36.3819C139.281 37.4436 136.95 38 134.126 38V40C137.211 40 139.899 39.3916 142.146 38.1238L141.163 36.3819ZM128.671 36.875H133.899V34.875H128.671V36.875ZM133.899 36.875C136.428 36.875 138.609 36.3874 140.385 35.3454L139.373 33.6205C137.985 34.4346 136.18 34.875 133.899 34.875V36.875ZM140.385 35.3454C142.149 34.31 143.467 32.8294 144.327 30.9326L142.505 30.1072C141.811 31.6384 140.771 32.7999 139.373 33.6205L140.385 35.3454ZM144.327 30.9326C145.175 29.06 145.581 26.8719 145.581 24.3977H143.581C143.581 26.6584 143.21 28.5518 142.505 30.1072L144.327 30.9326ZM145.581 24.3977C145.581 21.9431 145.18 19.774 144.341 17.9201L142.519 18.7447C143.214 20.2809 143.581 22.1553 143.581 24.3977H145.581ZM144.342 17.922C143.495 16.041 142.215 14.5729 140.505 13.553L139.48 15.2708C140.819 16.0692 141.83 17.2147 142.518 18.7427L144.342 17.922ZM140.509 13.5554C138.791 12.5203 136.701 12.0341 134.296 12.0341V14.0341C136.437 14.0341 138.145 14.4664 139.476 15.2685L140.509 13.5554ZM134.296 12.0341H128.671V14.0341H134.296V12.0341ZM127.671 13.0341V35.875H129.671V13.0341H127.671ZM157.421 9.90909H158.421V8.90909H157.421V9.90909ZM157.421 39V40H158.421V39H157.421ZM153.899 39H152.899V40H153.899V39ZM153.899 9.90909V8.90909H152.899V9.90909H153.899ZM156.421 9.90909V39H158.421V9.90909H156.421ZM157.421 38H153.899V40H157.421V38ZM154.899 39V9.90909H152.899V39H154.899ZM153.899 10.9091H157.421V8.90909H153.899V10.9091ZM162.894 13.0341H161.894V14.0341H162.894V13.0341ZM162.894 9.90909V8.90909H161.894V9.90909H162.894ZM184.712 9.90909H185.712V8.90909H184.712V9.90909ZM184.712 13.0341V14.0341H185.712V13.0341H184.712ZM175.564 13.0341V12.0341H174.564V13.0341H175.564ZM175.564 39V40H176.564V39H175.564ZM172.042 39H171.042V40H172.042V39ZM172.042 13.0341H173.042V12.0341H172.042V13.0341ZM163.894 13.0341V9.90909H161.894V13.0341H163.894ZM162.894 10.9091H184.712V8.90909H162.894V10.9091ZM183.712 9.90909V13.0341H185.712V9.90909H183.712ZM184.712 12.0341H175.564V14.0341H184.712V12.0341ZM174.564 13.0341V39H176.564V13.0341H174.564ZM175.564 38H172.042V40H175.564V38ZM173.042 39V13.0341H171.042V39H173.042ZM172.042 12.0341H162.894V14.0341H172.042V12.0341ZM211.821 32.4091L210.925 31.9649L210.925 31.9649L211.821 32.4091ZM207.262 37.5795L207.793 38.4266L207.793 38.4266L207.262 37.5795ZM194.023 37.5795L193.492 38.4266L193.492 38.4266L194.023 37.5795ZM189.463 32.4091L190.359 31.9649L190.359 31.9649L189.463 32.4091ZM189.463 16.5L188.567 16.0558L189.463 16.5ZM207.262 11.3295L207.793 10.4825L207.793 10.4825L207.262 11.3295ZM211.821 16.5L210.925 16.9442L210.925 16.9442L211.821 16.5ZM208.81 18.0767L207.909 18.5101L207.911 18.5141L208.81 18.0767ZM205.415 14.142L204.884 14.9894L204.887 14.991L205.415 14.142ZM195.855 14.142L195.327 13.2931L195.324 13.2947L195.855 14.142ZM192.461 18.0767L191.561 17.6393L191.559 17.6433L192.461 18.0767ZM192.461 30.8324L191.559 31.2658L191.561 31.2697L192.461 30.8324ZM195.855 34.767L195.324 35.6144L195.327 35.616L195.855 34.767ZM205.415 34.767L204.887 33.9181L204.884 33.9197L205.415 34.767ZM208.81 30.8324L207.911 30.395L207.909 30.399L208.81 30.8324ZM212.483 24.4545C212.483 27.4034 211.951 29.8962 210.925 31.9649L212.717 32.8533C213.908 30.4522 214.483 27.642 214.483 24.4545H212.483ZM210.925 31.9649C209.891 34.0504 208.491 35.6275 206.73 36.7325L207.793 38.4266C209.896 37.1073 211.535 35.2374 212.717 32.8533L210.925 31.9649ZM206.73 36.7325C204.972 37.8359 202.953 38.3977 200.642 38.3977V40.3977C203.294 40.3977 205.688 39.7474 207.793 38.4266L206.73 36.7325ZM200.642 38.3977C198.332 38.3977 196.313 37.8359 194.555 36.7325L193.492 38.4266C195.597 39.7474 197.99 40.3977 200.642 40.3977V38.3977ZM194.555 36.7325C192.794 35.6275 191.393 34.0504 190.359 31.9649L188.567 32.8533C189.749 35.2374 191.389 37.1073 193.492 38.4266L194.555 36.7325ZM190.359 31.9649C189.334 29.8962 188.801 27.4034 188.801 24.4545H186.801C186.801 27.642 187.377 30.4522 188.567 32.8533L190.359 31.9649ZM188.801 24.4545C188.801 21.5057 189.334 19.0128 190.359 16.9442L188.567 16.0558C187.377 18.4568 186.801 21.2671 186.801 24.4545H188.801ZM190.359 16.9442C191.393 14.8586 192.794 13.2815 194.555 12.1766L193.492 10.4825C191.389 11.8018 189.749 13.6717 188.567 16.0558L190.359 16.9442ZM194.555 12.1766C196.313 11.0732 198.332 10.5114 200.642 10.5114V8.51136C197.99 8.51136 195.597 9.16169 193.492 10.4825L194.555 12.1766ZM200.642 10.5114C202.953 10.5114 204.972 11.0732 206.73 12.1766L207.793 10.4825C205.688 9.16169 203.294 8.51136 200.642 8.51136V10.5114ZM206.73 12.1766C208.491 13.2815 209.891 14.8586 210.925 16.9442L212.717 16.0558C211.535 13.6717 209.896 11.8018 207.793 10.4825L206.73 12.1766ZM210.925 16.9442C211.951 19.0128 212.483 21.5057 212.483 24.4545H214.483C214.483 21.2671 213.908 18.4568 212.717 16.0558L210.925 16.9442ZM211.074 24.4545C211.074 21.8288 210.635 19.5438 209.709 17.6393L207.911 18.5141C208.67 20.0756 209.074 22.0424 209.074 24.4545H211.074ZM209.711 17.6433C208.808 15.7641 207.557 14.2972 205.944 13.2931L204.887 14.991C206.133 15.7672 207.146 16.9234 207.909 18.5101L209.711 17.6433ZM205.946 13.2947C204.358 12.2996 202.582 11.8068 200.642 11.8068V13.8068C202.226 13.8068 203.631 14.2042 204.884 14.9894L205.946 13.2947ZM200.642 11.8068C198.703 11.8068 196.923 12.2996 195.327 13.2931L196.384 14.991C197.648 14.2042 199.059 13.8068 200.642 13.8068V11.8068ZM195.324 13.2947C193.723 14.2985 192.473 15.7637 191.561 17.6393L193.36 18.5141C194.133 16.9238 195.147 15.7659 196.386 14.9894L195.324 13.2947ZM191.559 17.6433C190.644 19.5467 190.211 21.8302 190.211 24.4545H192.211C192.211 22.041 192.61 20.0727 193.362 18.5101L191.559 17.6433ZM190.211 24.4545C190.211 27.0789 190.644 29.3624 191.559 31.2658L193.362 30.399C192.61 28.8364 192.211 26.8681 192.211 24.4545H190.211ZM191.561 31.2697C192.473 33.1454 193.723 34.6106 195.324 35.6144L196.386 33.9197C195.147 33.1432 194.133 31.9853 193.36 30.395L191.561 31.2697ZM195.327 35.616C196.923 36.6095 198.703 37.1023 200.642 37.1023V35.1023C199.059 35.1023 197.648 34.7049 196.384 33.9181L195.327 35.616ZM200.642 37.1023C202.582 37.1023 204.358 36.6095 205.946 35.6144L204.884 33.9197C203.631 34.7049 202.226 35.1023 200.642 35.1023V37.1023ZM205.944 35.616C207.557 34.6119 208.808 33.145 209.711 31.2658L207.909 30.399C207.146 31.9857 206.133 33.1419 204.887 33.9181L205.944 35.616ZM209.709 31.2697C210.635 29.3653 211.074 27.0803 211.074 24.4545H209.074C209.074 26.8667 208.67 28.8335 207.911 30.395L209.709 31.2697ZM219.407 39H218.407V40H219.407V39ZM219.407 9.90909V8.90909H218.407V9.90909H219.407ZM234.833 11.0739L234.363 11.9565L234.367 11.9589L234.833 11.0739ZM238.071 14.2415L237.185 14.7036L237.185 14.7036L238.071 14.2415ZM238.071 23.3892L237.187 22.9219L237.187 22.9219L238.071 23.3892ZM234.847 26.5142L235.306 27.4028L235.31 27.4004L234.847 26.5142ZM221.338 27.6364H220.338V28.6364H221.338V27.6364ZM221.338 24.4545V23.4545H220.338V24.4545H221.338ZM232.929 23.7727L232.5 22.8695L232.497 22.8712L232.929 23.7727ZM235.003 21.8409L234.115 21.3818L234.113 21.3856L235.003 21.8409ZM232.915 13.7585L232.464 14.6512L232.471 14.6547L232.915 13.7585ZM222.929 13.0341V12.0341H221.929V13.0341H222.929ZM222.929 39V40H223.929V39H222.929ZM233.1 25.9318L233.977 25.4514L233.692 24.9318H233.1V25.9318ZM240.259 39V40H241.947L241.136 38.5195L240.259 39ZM236.168 39L235.288 39.4746L235.571 40H236.168V39ZM229.122 25.9318V24.9318H227.447L228.242 26.4064L229.122 25.9318ZM220.407 39V9.90909H218.407V39H220.407ZM219.407 10.9091H229.236V8.90909H219.407V10.9091ZM229.236 10.9091C231.403 10.9091 233.093 11.2805 234.363 11.9565L235.303 10.1912C233.656 9.31418 231.614 8.90909 229.236 8.90909V10.9091ZM234.367 11.9589C235.662 12.6398 236.586 13.5552 237.185 14.7036L238.958 13.7793C238.155 12.2383 236.92 11.042 235.298 10.1888L234.367 11.9589ZM237.185 14.7036C237.802 15.8879 238.122 17.2552 238.122 18.8295H240.122C240.122 16.9758 239.742 15.2844 238.958 13.7793L237.185 14.7036ZM238.122 18.8295C238.122 20.4042 237.802 21.7596 237.187 22.9219L238.955 23.8565C239.743 22.3673 240.122 20.683 240.122 18.8295H238.122ZM237.187 22.9219C236.59 24.0524 235.67 24.9554 234.384 25.628L235.31 27.4004C236.922 26.5579 238.152 25.3775 238.955 23.8565L237.187 22.9219ZM234.388 25.6257C233.125 26.278 231.445 26.6364 229.293 26.6364V28.6364C231.649 28.6364 233.671 28.2466 235.306 27.4027L234.388 25.6257ZM229.293 26.6364H221.338V28.6364H229.293V26.6364ZM222.338 27.6364V24.4545H220.338V27.6364H222.338ZM221.338 25.4545H229.179V23.4545H221.338V25.4545ZM229.179 25.4545C230.816 25.4545 232.231 25.2171 233.362 24.6742L232.497 22.8712C231.734 23.2375 230.648 23.4545 229.179 23.4545V25.4545ZM233.359 24.6759C234.486 24.1399 235.354 23.3509 235.894 22.2962L234.113 21.3856C233.8 21.9976 233.285 22.4964 232.5 22.8695L233.359 24.6759ZM235.892 22.3001C236.415 21.2866 236.657 20.1183 236.657 18.8295H234.657C234.657 19.8704 234.462 20.7096 234.115 21.3818L235.892 22.3001ZM236.657 18.8295C236.657 17.5396 236.415 16.3631 235.898 15.3284L234.109 16.2228C234.463 16.9305 234.657 17.7899 234.657 18.8295H236.657ZM235.898 15.3284C235.355 14.2436 234.491 13.4226 233.359 12.8623L232.471 14.6547C233.252 15.0414 233.78 15.5651 234.109 16.2228L235.898 15.3284ZM233.366 12.8659C232.22 12.2871 230.783 12.0341 229.122 12.0341V14.0341C230.605 14.0341 231.698 14.264 232.464 14.6512L233.366 12.8659ZM229.122 12.0341H222.929V14.0341H229.122V12.0341ZM221.929 13.0341V39H223.929V13.0341H221.929ZM222.929 38H219.407V40H222.929V38ZM232.223 26.4123L239.382 39.4805L241.136 38.5195L233.977 25.4514L232.223 26.4123ZM240.259 38H236.168V40H240.259V38ZM237.048 38.5254L230.003 25.4573L228.242 26.4064L235.288 39.4746L237.048 38.5254ZM229.122 26.9318H233.1V24.9318H229.122V26.9318Z" fill="white"/>
<path d="M95.125 39V42.125H76.9432V39H95.125ZM98.6087 39V9.90909H116.165V13.0341H102.131V22.8636H115.256V25.9886H102.131V35.875H116.393V39H98.6087ZM131.492 39H122.515V9.90909H131.89C134.712 9.90909 137.127 10.4915 139.134 11.6562C141.142 12.8116 142.681 14.4735 143.751 16.642C144.821 18.8011 145.356 21.3864 145.356 24.3977C145.356 27.428 144.816 30.0369 143.737 32.2244C142.657 34.4025 141.085 36.0786 139.021 37.2528C136.956 38.4176 134.447 39 131.492 39ZM126.038 35.875H131.265C133.67 35.875 135.664 35.411 137.245 34.483C138.826 33.5549 140.005 32.2339 140.782 30.5199C141.558 28.8059 141.947 26.7652 141.947 24.3977C141.947 22.0492 141.563 20.0275 140.796 18.3324C140.029 16.6278 138.883 15.321 137.359 14.4119C135.834 13.4934 133.935 13.0341 131.663 13.0341H126.038V35.875ZM154.788 9.90909V39H151.265V9.90909H154.788ZM160.26 13.0341V9.90909H182.078V13.0341H172.93V39H169.408V13.0341H160.26ZM210.849 24.4545C210.849 27.5227 210.295 30.1742 209.188 32.4091C208.08 34.6439 206.56 36.3674 204.628 37.5795C202.696 38.7917 200.49 39.3977 198.009 39.3977C195.527 39.3977 193.321 38.7917 191.389 37.5795C189.457 36.3674 187.938 34.6439 186.83 32.4091C185.722 30.1742 185.168 27.5227 185.168 24.4545C185.168 21.3864 185.722 18.7348 186.83 16.5C187.938 14.2652 189.457 12.5417 191.389 11.3295C193.321 10.1174 195.527 9.51136 198.009 9.51136C200.49 9.51136 202.696 10.1174 204.628 11.3295C206.56 12.5417 208.08 14.2652 209.188 16.5C210.295 18.7348 210.849 21.3864 210.849 24.4545ZM207.44 24.4545C207.44 21.9356 207.019 19.8097 206.176 18.0767C205.343 16.3438 204.211 15.0322 202.781 14.142C201.361 13.2519 199.77 12.8068 198.009 12.8068C196.247 12.8068 194.652 13.2519 193.222 14.142C191.801 15.0322 190.67 16.3438 189.827 18.0767C188.993 19.8097 188.577 21.9356 188.577 24.4545C188.577 26.9735 188.993 29.0994 189.827 30.8324C190.67 32.5653 191.801 33.8769 193.222 34.767C194.652 35.6572 196.247 36.1023 198.009 36.1023C199.77 36.1023 201.361 35.6572 202.781 34.767C204.211 33.8769 205.343 32.5653 206.176 30.8324C207.019 29.0994 207.44 26.9735 207.44 24.4545ZM216.773 39V9.90909H226.602C228.875 9.90909 230.741 10.2973 232.199 11.0739C233.657 11.8409 234.737 12.8968 235.438 14.2415C236.138 15.5862 236.489 17.1155 236.489 18.8295C236.489 20.5436 236.138 22.0634 235.438 23.3892C234.737 24.715 233.662 25.7566 232.213 26.5142C230.764 27.2623 228.913 27.6364 226.659 27.6364H218.705V24.4545H226.545C228.098 24.4545 229.348 24.2273 230.295 23.7727C231.252 23.3182 231.943 22.6742 232.369 21.8409C232.805 20.9981 233.023 19.9943 233.023 18.8295C233.023 17.6648 232.805 16.6468 232.369 15.7756C231.934 14.9044 231.238 14.232 230.281 13.7585C229.325 13.2756 228.061 13.0341 226.489 13.0341H220.295V39H216.773ZM230.466 25.9318L237.625 39H233.534L226.489 25.9318H230.466Z" fill="#2262C6"/>
<path d="M95.125 39H96.125V38H95.125V39ZM95.125 42.125V43.125H96.125V42.125H95.125ZM76.9432 42.125H75.9432V43.125H76.9432V42.125ZM76.9432 39V38H75.9432V39H76.9432ZM94.125 39V42.125H96.125V39H94.125ZM95.125 41.125H76.9432V43.125H95.125V41.125ZM77.9432 42.125V39H75.9432V42.125H77.9432ZM76.9432 40H95.125V38H76.9432V40ZM98.6087 39H97.6087V40H98.6087V39ZM98.6087 9.90909V8.90909H97.6087V9.90909H98.6087ZM116.165 9.90909H117.165V8.90909H116.165V9.90909ZM116.165 13.0341V14.0341H117.165V13.0341H116.165ZM102.131 13.0341V12.0341H101.131V13.0341H102.131ZM102.131 22.8636H101.131V23.8636H102.131V22.8636ZM115.256 22.8636H116.256V21.8636H115.256V22.8636ZM115.256 25.9886V26.9886H116.256V25.9886H115.256ZM102.131 25.9886V24.9886H101.131V25.9886H102.131ZM102.131 35.875H101.131V36.875H102.131V35.875ZM116.393 35.875H117.393V34.875H116.393V35.875ZM116.393 39V40H117.393V39H116.393ZM99.6087 39V9.90909H97.6087V39H99.6087ZM98.6087 10.9091H116.165V8.90909H98.6087V10.9091ZM115.165 9.90909V13.0341H117.165V9.90909H115.165ZM116.165 12.0341H102.131V14.0341H116.165V12.0341ZM101.131 13.0341V22.8636H103.131V13.0341H101.131ZM102.131 23.8636H115.256V21.8636H102.131V23.8636ZM114.256 22.8636V25.9886H116.256V22.8636H114.256ZM115.256 24.9886H102.131V26.9886H115.256V24.9886ZM101.131 25.9886V35.875H103.131V25.9886H101.131ZM102.131 36.875H116.393V34.875H102.131V36.875ZM115.393 35.875V39H117.393V35.875H115.393ZM116.393 38H98.6087V40H116.393V38ZM122.515 39H121.515V40H122.515V39ZM122.515 9.90909V8.90909H121.515V9.90909H122.515ZM139.134 11.6562L138.632 12.5212L138.635 12.523L139.134 11.6562ZM143.751 16.642L142.854 17.0846L142.855 17.0861L143.751 16.642ZM143.737 32.2244L144.632 32.6685L144.633 32.667L143.737 32.2244ZM139.021 37.2528L139.512 38.1238L139.515 38.1221L139.021 37.2528ZM126.038 35.875H125.038V36.875H126.038V35.875ZM137.245 34.483L136.739 33.6205L137.245 34.483ZM140.796 18.3324L139.884 18.7428L139.885 18.7447L140.796 18.3324ZM137.359 14.4119L136.843 15.2685L136.847 15.2708L137.359 14.4119ZM126.038 13.0341V12.0341H125.038V13.0341H126.038ZM131.492 38H122.515V40H131.492V38ZM123.515 39V9.90909H121.515V39H123.515ZM122.515 10.9091H131.89V8.90909H122.515V10.9091ZM131.89 10.9091C134.574 10.9091 136.807 11.4622 138.632 12.5212L139.636 10.7913C137.446 9.52079 134.85 8.90909 131.89 8.90909V10.9091ZM138.635 12.523C140.463 13.5749 141.867 15.0854 142.854 17.0846L144.647 16.1995C143.494 13.8615 141.82 12.0482 139.633 10.7895L138.635 12.523ZM142.855 17.0861C143.841 19.0771 144.356 21.5029 144.356 24.3977H146.356C146.356 21.2699 145.8 18.5252 144.647 16.198L142.855 17.0861ZM144.356 24.3977C144.356 27.3109 143.837 29.7613 142.84 31.7819L144.633 32.667C145.795 30.3126 146.356 27.5452 146.356 24.3977H144.356ZM142.841 31.7803C141.847 33.7843 140.413 35.3103 138.526 36.3836L139.515 38.1221C141.757 36.8469 143.467 35.0206 144.632 32.6685L142.841 31.7803ZM138.529 36.3819C136.647 37.4436 134.316 38 131.492 38V40C134.577 40 137.265 39.3916 139.512 38.1238L138.529 36.3819ZM126.038 36.875H131.265V34.875H126.038V36.875ZM131.265 36.875C133.794 36.875 135.976 36.3874 137.751 35.3454L136.739 33.6205C135.352 34.4346 133.546 34.875 131.265 34.875V36.875ZM137.751 35.3454C139.516 34.31 140.833 32.8294 141.693 30.9326L139.871 30.1072C139.177 31.6384 138.137 32.7999 136.739 33.6205L137.751 35.3454ZM141.693 30.9326C142.541 29.06 142.947 26.8719 142.947 24.3977H140.947C140.947 26.6584 140.576 28.5518 139.871 30.1072L141.693 30.9326ZM142.947 24.3977C142.947 21.9431 142.546 19.774 141.707 17.9201L139.885 18.7447C140.58 20.2809 140.947 22.1553 140.947 24.3977H142.947ZM141.708 17.922C140.862 16.041 139.581 14.5729 137.871 13.553L136.847 15.2708C138.185 16.0692 139.197 17.2147 139.884 18.7427L141.708 17.922ZM137.875 13.5554C136.157 12.5203 134.068 12.0341 131.663 12.0341V14.0341C133.803 14.0341 135.511 14.4664 136.843 15.2685L137.875 13.5554ZM131.663 12.0341H126.038V14.0341H131.663V12.0341ZM125.038 13.0341V35.875H127.038V13.0341H125.038ZM154.788 9.90909H155.788V8.90909H154.788V9.90909ZM154.788 39V40H155.788V39H154.788ZM151.265 39H150.265V40H151.265V39ZM151.265 9.90909V8.90909H150.265V9.90909H151.265ZM153.788 9.90909V39H155.788V9.90909H153.788ZM154.788 38H151.265V40H154.788V38ZM152.265 39V9.90909H150.265V39H152.265ZM151.265 10.9091H154.788V8.90909H151.265V10.9091ZM160.26 13.0341H159.26V14.0341H160.26V13.0341ZM160.26 9.90909V8.90909H159.26V9.90909H160.26ZM182.078 9.90909H183.078V8.90909H182.078V9.90909ZM182.078 13.0341V14.0341H183.078V13.0341H182.078ZM172.93 13.0341V12.0341H171.93V13.0341H172.93ZM172.93 39V40H173.93V39H172.93ZM169.408 39H168.408V40H169.408V39ZM169.408 13.0341H170.408V12.0341H169.408V13.0341ZM161.26 13.0341V9.90909H159.26V13.0341H161.26ZM160.26 10.9091H182.078V8.90909H160.26V10.9091ZM181.078 9.90909V13.0341H183.078V9.90909H181.078ZM182.078 12.0341H172.93V14.0341H182.078V12.0341ZM171.93 13.0341V39H173.93V13.0341H171.93ZM172.93 38H169.408V40H172.93V38ZM170.408 39V13.0341H168.408V39H170.408ZM169.408 12.0341H160.26V14.0341H169.408V12.0341ZM209.188 32.4091L208.292 31.9649L208.292 31.9649L209.188 32.4091ZM204.628 37.5795L205.159 38.4266L205.159 38.4266L204.628 37.5795ZM191.389 37.5795L190.858 38.4266L190.858 38.4266L191.389 37.5795ZM186.83 32.4091L187.725 31.9649L187.725 31.9649L186.83 32.4091ZM186.83 16.5L185.934 16.0558L186.83 16.5ZM204.628 11.3295L205.159 10.4825L205.159 10.4825L204.628 11.3295ZM209.188 16.5L208.292 16.9442L208.292 16.9442L209.188 16.5ZM206.176 18.0767L205.275 18.5101L205.277 18.5141L206.176 18.0767ZM202.781 14.142L202.25 14.9894L202.253 14.991L202.781 14.142ZM193.222 14.142L192.693 13.2931L192.691 13.2947L193.222 14.142ZM189.827 18.0767L188.927 17.6393L188.925 17.6433L189.827 18.0767ZM189.827 30.8324L188.925 31.2658L188.927 31.2697L189.827 30.8324ZM193.222 34.767L192.691 35.6144L192.693 35.616L193.222 34.767ZM202.781 34.767L202.253 33.9181L202.25 33.9197L202.781 34.767ZM206.176 30.8324L205.277 30.395L205.275 30.399L206.176 30.8324ZM209.849 24.4545C209.849 27.4034 209.317 29.8962 208.292 31.9649L210.083 32.8533C211.274 30.4522 211.849 27.642 211.849 24.4545H209.849ZM208.292 31.9649C207.258 34.0504 205.857 35.6275 204.096 36.7325L205.159 38.4266C207.262 37.1073 208.901 35.2374 210.083 32.8533L208.292 31.9649ZM204.096 36.7325C202.338 37.8359 200.319 38.3977 198.009 38.3977V40.3977C200.66 40.3977 203.054 39.7474 205.159 38.4266L204.096 36.7325ZM198.009 38.3977C195.698 38.3977 193.679 37.8359 191.921 36.7325L190.858 38.4266C192.963 39.7474 195.357 40.3977 198.009 40.3977V38.3977ZM191.921 36.7325C190.16 35.6275 188.759 34.0504 187.725 31.9649L185.934 32.8533C187.116 35.2374 188.755 37.1073 190.858 38.4266L191.921 36.7325ZM187.725 31.9649C186.7 29.8962 186.168 27.4034 186.168 24.4545H184.168C184.168 27.642 184.743 30.4522 185.934 32.8533L187.725 31.9649ZM186.168 24.4545C186.168 21.5057 186.7 19.0128 187.725 16.9442L185.934 16.0558C184.743 18.4568 184.168 21.2671 184.168 24.4545H186.168ZM187.725 16.9442C188.759 14.8586 190.16 13.2815 191.921 12.1766L190.858 10.4825C188.755 11.8018 187.116 13.6717 185.934 16.0558L187.725 16.9442ZM191.921 12.1766C193.679 11.0732 195.698 10.5114 198.009 10.5114V8.51136C195.357 8.51136 192.963 9.16169 190.858 10.4825L191.921 12.1766ZM198.009 10.5114C200.319 10.5114 202.338 11.0732 204.096 12.1766L205.159 10.4825C203.054 9.16169 200.66 8.51136 198.009 8.51136V10.5114ZM204.096 12.1766C205.857 13.2815 207.258 14.8586 208.292 16.9442L210.083 16.0558C208.901 13.6717 207.262 11.8018 205.159 10.4825L204.096 12.1766ZM208.292 16.9442C209.317 19.0128 209.849 21.5057 209.849 24.4545H211.849C211.849 21.2671 211.274 18.4568 210.083 16.0558L208.292 16.9442ZM208.44 24.4545C208.44 21.8288 208.002 19.5438 207.075 17.6393L205.277 18.5141C206.036 20.0756 206.44 22.0424 206.44 24.4545H208.44ZM207.077 17.6433C206.174 15.7641 204.923 14.2972 203.31 13.2931L202.253 14.991C203.5 15.7672 204.512 16.9234 205.275 18.5101L207.077 17.6433ZM203.312 13.2947C201.724 12.2996 199.948 11.8068 198.009 11.8068V13.8068C199.592 13.8068 200.997 14.2042 202.25 14.9894L203.312 13.2947ZM198.009 11.8068C196.069 11.8068 194.289 12.2996 192.693 13.2931L193.75 14.991C195.014 14.2042 196.425 13.8068 198.009 13.8068V11.8068ZM192.691 13.2947C191.089 14.2985 189.84 15.7637 188.927 17.6393L190.726 18.5141C191.499 16.9238 192.514 15.7659 193.753 14.9894L192.691 13.2947ZM188.925 17.6433C188.01 19.5467 187.577 21.8302 187.577 24.4545H189.577C189.577 22.041 189.977 20.0727 190.728 18.5101L188.925 17.6433ZM187.577 24.4545C187.577 27.0789 188.01 29.3624 188.925 31.2658L190.728 30.399C189.977 28.8364 189.577 26.8681 189.577 24.4545H187.577ZM188.927 31.2697C189.84 33.1454 191.089 34.6106 192.691 35.6144L193.753 33.9197C192.514 33.1432 191.499 31.9853 190.726 30.395L188.927 31.2697ZM192.693 35.616C194.289 36.6095 196.069 37.1023 198.009 37.1023V35.1023C196.425 35.1023 195.014 34.7049 193.75 33.9181L192.693 35.616ZM198.009 37.1023C199.948 37.1023 201.724 36.6095 203.312 35.6144L202.25 33.9197C200.997 34.7049 199.592 35.1023 198.009 35.1023V37.1023ZM203.31 35.616C204.923 34.6119 206.174 33.145 207.077 31.2658L205.275 30.399C204.512 31.9857 203.5 33.1419 202.253 33.9181L203.31 35.616ZM207.075 31.2697C208.002 29.3653 208.44 27.0803 208.44 24.4545H206.44C206.44 26.8667 206.036 28.8335 205.277 30.395L207.075 31.2697ZM216.773 39H215.773V40H216.773V39ZM216.773 9.90909V8.90909H215.773V9.90909H216.773ZM232.199 11.0739L231.729 11.9565L231.733 11.9589L232.199 11.0739ZM235.438 14.2415L234.551 14.7036L234.551 14.7036L235.438 14.2415ZM235.438 23.3892L234.553 22.9219L234.553 22.9219L235.438 23.3892ZM232.213 26.5142L232.672 27.4028L232.676 27.4004L232.213 26.5142ZM218.705 27.6364H217.705V28.6364H218.705V27.6364ZM218.705 24.4545V23.4545H217.705V24.4545H218.705ZM230.295 23.7727L229.866 22.8695L229.863 22.8712L230.295 23.7727ZM232.369 21.8409L231.481 21.3818L231.479 21.3856L232.369 21.8409ZM230.281 13.7585L229.83 14.6512L229.838 14.6547L230.281 13.7585ZM220.295 13.0341V12.0341H219.295V13.0341H220.295ZM220.295 39V40H221.295V39H220.295ZM230.466 25.9318L231.343 25.4514L231.058 24.9318H230.466V25.9318ZM237.625 39V40H239.313L238.502 38.5195L237.625 39ZM233.534 39L232.654 39.4746L232.937 40H233.534V39ZM226.489 25.9318V24.9318H224.813L225.608 26.4064L226.489 25.9318ZM217.773 39V9.90909H215.773V39H217.773ZM216.773 10.9091H226.602V8.90909H216.773V10.9091ZM226.602 10.9091C228.77 10.9091 230.459 11.2805 231.729 11.9565L232.669 10.1912C231.022 9.31418 228.98 8.90909 226.602 8.90909V10.9091ZM231.733 11.9589C233.028 12.6398 233.952 13.5552 234.551 14.7036L236.324 13.7793C235.521 12.2383 234.287 11.042 232.664 10.1888L231.733 11.9589ZM234.551 14.7036C235.168 15.8879 235.489 17.2552 235.489 18.8295H237.489C237.489 16.9758 237.109 15.2844 236.324 13.7793L234.551 14.7036ZM235.489 18.8295C235.489 20.4042 235.168 21.7596 234.553 22.9219L236.322 23.8565C237.109 22.3673 237.489 20.683 237.489 18.8295H235.489ZM234.553 22.9219C233.956 24.0524 233.036 24.9554 231.75 25.628L232.676 27.4004C234.288 26.5579 235.518 25.3775 236.322 23.8565L234.553 22.9219ZM231.754 25.6257C230.491 26.278 228.811 26.6364 226.659 26.6364V28.6364C229.015 28.6364 231.037 28.2466 232.672 27.4027L231.754 25.6257ZM226.659 26.6364H218.705V28.6364H226.659V26.6364ZM219.705 27.6364V24.4545H217.705V27.6364H219.705ZM218.705 25.4545H226.545V23.4545H218.705V25.4545ZM226.545 25.4545C228.182 25.4545 229.597 25.2171 230.728 24.6742L229.863 22.8712C229.1 23.2375 228.014 23.4545 226.545 23.4545V25.4545ZM230.725 24.6759C231.853 24.1399 232.72 23.3509 233.26 22.2962L231.479 21.3856C231.166 21.9976 230.651 22.4964 229.866 22.8695L230.725 24.6759ZM233.258 22.3001C233.781 21.2866 234.023 20.1183 234.023 18.8295H232.023C232.023 19.8704 231.828 20.7096 231.481 21.3818L233.258 22.3001ZM234.023 18.8295C234.023 17.5396 233.781 16.3631 233.264 15.3284L231.475 16.2228C231.829 16.9305 232.023 17.7899 232.023 18.8295H234.023ZM233.264 15.3284C232.721 14.2436 231.857 13.4226 230.725 12.8623L229.838 14.6547C230.619 15.0414 231.146 15.5651 231.475 16.2228L233.264 15.3284ZM230.732 12.8659C229.586 12.2871 228.15 12.0341 226.489 12.0341V14.0341C227.972 14.0341 229.064 14.264 229.831 14.6512L230.732 12.8659ZM226.489 12.0341H220.295V14.0341H226.489V12.0341ZM219.295 13.0341V39H221.295V13.0341H219.295ZM220.295 38H216.773V40H220.295V38ZM229.589 26.4123L236.748 39.4805L238.502 38.5195L231.343 25.4514L229.589 26.4123ZM237.625 38H233.534V40H237.625V38ZM234.414 38.5254L227.369 25.4573L225.608 26.4064L232.654 39.4746L234.414 38.5254ZM226.489 26.9318H230.466V24.9318H226.489V26.9318Z" fill="white"/>
<g filter="url(#filter0_i_118_92)">
<path d="M7.74226 38.96L6.90226 37.36L7.98226 28.04L3.98226 26.56L3.74226 23.64L7.94226 21.16L8.66226 12.52L9.58226 11.16L13.3823 9.48L14.7023 12.44L11.7823 13.72L11.1023 22.28L10.3023 23.56L8.34226 24.72L10.3023 25.44L11.3423 27.12L10.1823 36.64L16.1823 39.72L14.7023 42.52L7.74226 38.96ZM16.5844 34.48L25.9444 31.76L25.3844 13.36L19.1844 12.88L19.5044 9.16L35.1844 10.24L34.9444 14.04L29.1844 13.64L29.7844 33.08L28.4244 34.96L17.7044 38.08L16.5844 34.48ZM49.3288 25.84L37.4088 37.6L34.7688 34.92L46.7288 23.12L37.7688 13.6L40.5288 11.08L49.4088 20.48L60.3688 9.68L63.0088 12.36L52.0088 23.2L63.1288 34.96L60.4088 37.56L49.3288 25.84ZM62.7391 39.64L67.2991 37.48L66.2991 29.24L66.8991 27.76L69.2591 25.88L67.5391 24.24L67.0591 23.04L67.1391 14.68L63.8591 13.32L64.9791 10.32L69.3791 12.04L70.3791 13.56L70.2991 22.36L72.7791 24.76L72.6991 27.24L69.5791 29.72L70.5791 38.28L69.6991 39.92L64.1391 42.52L62.7391 39.64Z" fill="#5884F8"/>
</g>
<path d="M7.74226 38.96L6.85686 39.4248L7.00437 39.7058L7.28688 39.8503L7.74226 38.96ZM6.90226 37.36L5.90891 37.2449L5.87338 37.5515L6.01686 37.8248L6.90226 37.36ZM7.98226 28.04L8.97561 28.1551L9.06604 27.3747L8.32927 27.1021L7.98226 28.04ZM3.98226 26.56L2.98562 26.6419L3.0378 27.2768L3.63525 27.4979L3.98226 26.56ZM3.74226 23.64L3.23381 22.7789L2.6943 23.0975L2.74562 23.7219L3.74226 23.64ZM7.94226 21.16L8.45071 22.0211L8.89587 21.7582L8.93881 21.243L7.94226 21.16ZM8.66226 12.52L7.83398 11.9597L7.68744 12.1763L7.66572 12.437L8.66226 12.52ZM9.58226 11.16L9.17791 10.2454L8.91503 10.3616L8.75398 10.5997L9.58226 11.16ZM13.3823 9.48L14.2956 9.07271L13.8896 8.16234L12.9779 8.56539L13.3823 9.48ZM14.7023 12.44L15.1037 13.3559L16.0254 12.9518L15.6156 12.0327L14.7023 12.44ZM11.7823 13.72L11.3808 12.8041L10.8328 13.0443L10.7854 13.6408L11.7823 13.72ZM11.1023 22.28L11.9503 22.81L12.0798 22.6028L12.0991 22.3592L11.1023 22.28ZM10.3023 23.56L10.8116 24.4206L11.0212 24.2965L11.1503 24.09L10.3023 23.56ZM8.34226 24.72L7.83294 23.8594L6.02013 24.9323L7.99744 25.6587L8.34226 24.72ZM10.3023 25.44L11.1525 24.9136L10.9709 24.6203L10.6471 24.5013L10.3023 25.44ZM11.3423 27.12L12.3349 27.241L12.3774 26.8923L12.1925 26.5936L11.3423 27.12ZM10.1823 36.64L9.1896 36.519L9.10526 37.2112L9.72558 37.5296L10.1823 36.64ZM16.1823 39.72L17.0664 40.1873L17.5393 39.2926L16.6389 38.8304L16.1823 39.72ZM14.7023 42.52L14.2469 43.4103L15.1253 43.8596L15.5864 42.9873L14.7023 42.52ZM8.62766 38.4952L7.78766 36.8952L6.01686 37.8248L6.85686 39.4248L8.62766 38.4952ZM7.89561 37.4751L8.97561 28.1551L6.98891 27.9249L5.90891 37.2449L7.89561 37.4751ZM8.32927 27.1021L4.32927 25.6221L3.63525 27.4979L7.63525 28.9779L8.32927 27.1021ZM4.9789 26.4781L4.7389 23.5581L2.74562 23.7219L2.98562 26.6419L4.9789 26.4781ZM4.25071 24.5011L8.45071 22.0211L7.43381 20.2989L3.23381 22.7789L4.25071 24.5011ZM8.93881 21.243L9.65881 12.603L7.66572 12.437L6.94572 21.077L8.93881 21.243ZM9.49054 13.0803L10.4105 11.7203L8.75398 10.5997L7.83398 11.9597L9.49054 13.0803ZM9.98661 12.0746L13.7866 10.3946L12.9779 8.56539L9.17791 10.2454L9.98661 12.0746ZM12.469 9.88728L13.789 12.8473L15.6156 12.0327L14.2956 9.07271L12.469 9.88728ZM14.3008 11.5241L11.3808 12.8041L12.1837 14.6359L15.1037 13.3559L14.3008 11.5241ZM10.7854 13.6408L10.1054 22.2008L12.0991 22.3592L12.7791 13.7992L10.7854 13.6408ZM10.2543 21.75L9.45426 23.03L11.1503 24.09L11.9503 22.81L10.2543 21.75ZM9.79294 22.6994L7.83294 23.8594L8.85158 25.5806L10.8116 24.4206L9.79294 22.6994ZM7.99744 25.6587L9.95744 26.3787L10.6471 24.5013L8.68708 23.7813L7.99744 25.6587ZM9.452 25.9664L10.492 27.6464L12.1925 26.5936L11.1525 24.9136L9.452 25.9664ZM10.3496 26.999L9.1896 36.519L11.1749 36.761L12.3349 27.241L10.3496 26.999ZM9.72558 37.5296L15.7256 40.6096L16.6389 38.8304L10.6389 35.7504L9.72558 37.5296ZM15.2982 39.2527L13.8182 42.0527L15.5864 42.9873L17.0664 40.1873L15.2982 39.2527ZM15.1576 41.6297L8.19764 38.0697L7.28688 39.8503L14.2469 43.4103L15.1576 41.6297ZM16.5844 34.48L16.3054 33.5197L15.3269 33.8041L15.6296 34.7771L16.5844 34.48ZM25.9444 31.76L26.2235 32.7203L26.9676 32.5041L26.944 31.7296L25.9444 31.76ZM25.3844 13.36L26.384 13.3296L26.3567 12.4323L25.4616 12.363L25.3844 13.36ZM19.1844 12.88L18.1881 12.7943L18.1017 13.7992L19.1073 13.877L19.1844 12.88ZM19.5044 9.16L19.5732 8.16236L18.5924 8.09481L18.5081 9.07429L19.5044 9.16ZM35.1844 10.24L36.1825 10.303L36.2451 9.31069L35.2532 9.24236L35.1844 10.24ZM34.9444 14.04L34.8752 15.0376L35.879 15.1073L35.9425 14.103L34.9444 14.04ZM29.1844 13.64L29.2537 12.6424L28.1508 12.5658L28.1849 13.6708L29.1844 13.64ZM29.7844 33.08L30.5947 33.6661L30.7945 33.3899L30.784 33.0492L29.7844 33.08ZM28.4244 34.96L28.7039 35.9202L29.0335 35.8242L29.2347 35.5461L28.4244 34.96ZM17.7044 38.08L16.7496 38.3771L17.0412 39.3145L17.9839 39.0402L17.7044 38.08ZM16.8635 35.4403L26.2235 32.7203L25.6654 30.7997L16.3054 33.5197L16.8635 35.4403ZM26.944 31.7296L26.384 13.3296L24.3849 13.3904L24.9449 31.7904L26.944 31.7296ZM25.4616 12.363L19.2616 11.883L19.1073 13.877L25.3073 14.357L25.4616 12.363ZM20.1808 12.9657L20.5008 9.2457L18.5081 9.07429L18.1881 12.7943L20.1808 12.9657ZM19.4357 10.1576L35.1157 11.2376L35.2532 9.24236L19.5732 8.16236L19.4357 10.1576ZM34.1864 10.177L33.9464 13.977L35.9425 14.103L36.1825 10.303L34.1864 10.177ZM35.0137 13.0424L29.2537 12.6424L29.1152 14.6376L34.8752 15.0376L35.0137 13.0424ZM28.1849 13.6708L28.7849 33.1108L30.784 33.0492L30.184 13.6091L28.1849 13.6708ZM28.9742 32.4939L27.6142 34.3739L29.2347 35.5461L30.5947 33.6661L28.9742 32.4939ZM28.145 33.9998L17.425 37.1198L17.9839 39.0402L28.7039 35.9202L28.145 33.9998ZM18.6593 37.7829L17.5393 34.1829L15.6296 34.7771L16.7496 38.3771L18.6593 37.7829ZM49.3288 25.84L50.0555 25.153L49.3537 24.4107L48.6265 25.1281L49.3288 25.84ZM37.4088 37.6L36.6964 38.3018L37.3987 39.0147L38.1111 38.3119L37.4088 37.6ZM34.7688 34.92L34.0665 34.2081L33.3552 34.9099L34.0564 35.6218L34.7688 34.92ZM46.7288 23.12L47.4312 23.8319L48.1264 23.1459L47.457 22.4346L46.7288 23.12ZM37.7688 13.6L37.0946 12.8615L36.3448 13.5461L37.0406 14.2854L37.7688 13.6ZM40.5288 11.08L41.2558 10.3933L40.5806 9.6786L39.8546 10.3415L40.5288 11.08ZM49.4088 20.48L48.6819 21.1667L49.3832 21.9091L50.1107 21.1923L49.4088 20.48ZM60.3688 9.68L61.0812 8.97823L60.3793 8.26571L59.6669 8.96771L60.3688 9.68ZM63.0088 12.36L63.7107 13.0723L64.4229 12.3705L63.7212 11.6582L63.0088 12.36ZM52.0088 23.2L51.3069 22.4877L50.6092 23.1753L51.2822 23.8871L52.0088 23.2ZM63.1288 34.96L63.8198 35.6829L64.5388 34.9956L63.8554 34.2729L63.1288 34.96ZM60.4088 37.56L59.6822 38.247L60.3729 38.9777L61.0998 38.2829L60.4088 37.56ZM48.6265 25.1281L36.7065 36.8881L38.1111 38.3119L50.0311 26.5519L48.6265 25.1281ZM38.1212 36.8982L35.4812 34.2182L34.0564 35.6218L36.6964 38.3018L38.1212 36.8982ZM35.4712 35.6319L47.4312 23.8319L46.0265 22.4081L34.0665 34.2081L35.4712 35.6319ZM47.457 22.4346L38.497 12.9146L37.0406 14.2854L46.0006 23.8054L47.457 22.4346ZM38.4431 14.3385L41.2031 11.8185L39.8546 10.3415L37.0946 12.8615L38.4431 14.3385ZM39.8019 11.7667L48.6819 21.1667L50.1358 19.7933L41.2558 10.3933L39.8019 11.7667ZM50.1107 21.1923L61.0707 10.3923L59.6669 8.96771L48.7069 19.7677L50.1107 21.1923ZM59.6564 10.3818L62.2964 13.0618L63.7212 11.6582L61.0812 8.97823L59.6564 10.3818ZM62.3069 11.6477L51.3069 22.4877L52.7107 23.9123L63.7107 13.0723L62.3069 11.6477ZM51.2822 23.8871L62.4022 35.6471L63.8554 34.2729L52.7354 22.5129L51.2822 23.8871ZM62.4378 34.2371L59.7178 36.8371L61.0998 38.2829L63.8198 35.6829L62.4378 34.2371ZM61.1355 36.873L50.0555 25.153L48.6022 26.527L59.6822 38.247L61.1355 36.873ZM62.7391 39.64L62.311 38.7363L61.3981 39.1687L61.8398 40.0772L62.7391 39.64ZM67.2991 37.48L67.7272 38.3837L68.3787 38.0751L68.2919 37.3595L67.2991 37.48ZM66.2991 29.24L65.3724 28.8643L65.2753 29.1039L65.3064 29.3605L66.2991 29.24ZM66.8991 27.76L66.2761 26.9778L66.0709 27.1412L65.9724 27.3843L66.8991 27.76ZM69.2591 25.88L69.8822 26.6622L70.7792 25.9476L69.9492 25.1563L69.2591 25.88ZM67.5391 24.24L66.6107 24.6114L66.6915 24.8135L66.8491 24.9637L67.5391 24.24ZM67.0591 23.04L66.0592 23.0304L66.0573 23.228L66.1307 23.4114L67.0591 23.04ZM67.1391 14.68L68.1391 14.6896L68.1455 14.0147L67.5222 13.7563L67.1391 14.68ZM63.8591 13.32L62.9223 12.9702L62.5848 13.8742L63.4761 14.2437L63.8591 13.32ZM64.9791 10.32L65.3432 9.38863L64.3975 9.01892L64.0423 9.97024L64.9791 10.32ZM69.3791 12.04L70.2146 11.4904L70.0396 11.2245L69.7432 11.1086L69.3791 12.04ZM70.3791 13.56L71.3791 13.5691L71.3819 13.2647L71.2146 13.0104L70.3791 13.56ZM70.2991 22.36L69.2992 22.3509L69.2953 22.7801L69.6037 23.0786L70.2991 22.36ZM72.7791 24.76L73.7786 24.7922L73.7929 24.3495L73.4746 24.0414L72.7791 24.76ZM72.6991 27.24L73.3214 28.0228L73.6837 27.7348L73.6986 27.2722L72.6991 27.24ZM69.5791 29.72L68.9569 28.9372L68.5213 29.2834L68.5859 29.836L69.5791 29.72ZM70.5791 38.28L71.4603 38.7528L71.6088 38.476L71.5724 38.164L70.5791 38.28ZM69.6991 39.92L70.1227 40.8258L70.4234 40.6853L70.5803 40.3928L69.6991 39.92ZM64.1391 42.52L63.2398 42.9572L63.6704 43.8431L64.5627 43.4259L64.1391 42.52ZM63.1672 40.5437L67.7272 38.3837L66.871 36.5763L62.311 38.7363L63.1672 40.5437ZM68.2919 37.3595L67.2919 29.1195L65.3064 29.3605L66.3064 37.6005L68.2919 37.3595ZM67.2259 29.6157L67.8259 28.1357L65.9724 27.3843L65.3724 28.8643L67.2259 29.6157ZM67.5222 28.5422L69.8822 26.6622L68.6361 25.0978L66.2761 26.9778L67.5222 28.5422ZM69.9492 25.1563L68.2292 23.5163L66.8491 24.9637L68.5691 26.6037L69.9492 25.1563ZM68.4676 23.8686L67.9876 22.6686L66.1307 23.4114L66.6107 24.6114L68.4676 23.8686ZM68.0591 23.0496L68.1391 14.6896L66.1392 14.6704L66.0592 23.0304L68.0591 23.0496ZM67.5222 13.7563L64.2422 12.3963L63.4761 14.2437L66.7561 15.6037L67.5222 13.7563ZM64.796 13.6698L65.916 10.6698L64.0423 9.97024L62.9223 12.9702L64.796 13.6698ZM64.6151 11.2514L69.0151 12.9714L69.7432 11.1086L65.3432 9.38863L64.6151 11.2514ZM68.5437 12.5896L69.5437 14.1096L71.2146 13.0104L70.2146 11.4904L68.5437 12.5896ZM69.3792 13.5509L69.2992 22.3509L71.2991 22.3691L71.3791 13.5691L69.3792 13.5509ZM69.6037 23.0786L72.0837 25.4786L73.4746 24.0414L70.9946 21.6414L69.6037 23.0786ZM71.7797 24.7278L71.6997 27.2078L73.6986 27.2722L73.7786 24.7922L71.7797 24.7278ZM72.0769 26.4572L68.9569 28.9372L70.2014 30.5028L73.3214 28.0228L72.0769 26.4572ZM68.5859 29.836L69.5859 38.396L71.5724 38.164L70.5724 29.604L68.5859 29.836ZM69.698 37.8072L68.818 39.4472L70.5803 40.3928L71.4603 38.7528L69.698 37.8072ZM69.2755 39.0142L63.7155 41.6142L64.5627 43.4259L70.1227 40.8258L69.2755 39.0142ZM65.0385 42.0828L63.6385 39.2028L61.8398 40.0772L63.2398 42.9572L65.0385 42.0828Z" fill="black"/>
<g filter="url(#filter1_i_118_92)">
<path d="M5.8 38.96L4.96 37.36L6.04 28.04L2.04 26.56L1.8 23.64L6 21.16L6.72 12.52L7.64 11.16L11.44 9.48L12.76 12.44L9.84 13.72L9.16 22.28L8.36 23.56L6.4 24.72L8.36 25.44L9.4 27.12L8.24 36.64L14.24 39.72L12.76 42.52L5.8 38.96ZM14.6422 34.48L24.0022 31.76L23.4422 13.36L17.2422 12.88L17.5622 9.16L33.2422 10.24L33.0022 14.04L27.2422 13.64L27.8422 33.08L26.4822 34.96L15.7622 38.08L14.6422 34.48ZM47.3866 25.84L35.4666 37.6L32.8266 34.92L44.7866 23.12L35.8266 13.6L38.5866 11.08L47.4666 20.48L58.4266 9.68L61.0666 12.36L50.0666 23.2L61.1866 34.96L58.4666 37.56L47.3866 25.84ZM60.7969 39.64L65.3569 37.48L64.3569 29.24L64.9569 27.76L67.3169 25.88L65.5969 24.24L65.1169 23.04L65.1969 14.68L61.9169 13.32L63.0369 10.32L67.4369 12.04L68.4369 13.56L68.3569 22.36L70.8369 24.76L70.7569 27.24L67.6369 29.72L68.6369 38.28L67.7569 39.92L62.1969 42.52L60.7969 39.64Z" fill="#2262C6"/>
</g>
<path d="M5.8 38.96L4.9146 39.4248L5.06211 39.7058L5.34462 39.8503L5.8 38.96ZM4.96 37.36L3.96665 37.2449L3.93111 37.5515L4.0746 37.8248L4.96 37.36ZM6.04 28.04L7.03335 28.1551L7.12378 27.3747L6.38701 27.1021L6.04 28.04ZM2.04 26.56L1.04336 26.6419L1.09554 27.2768L1.69299 27.4979L2.04 26.56ZM1.8 23.64L1.29155 22.7789L0.752037 23.0975L0.803361 23.7219L1.8 23.64ZM6 21.16L6.50845 22.0211L6.95361 21.7582L6.99655 21.243L6 21.16ZM6.72 12.52L5.89172 11.9597L5.74517 12.1763L5.72345 12.437L6.72 12.52ZM7.64 11.16L7.23565 10.2454L6.97277 10.3616L6.81172 10.5997L7.64 11.16ZM11.44 9.48L12.3533 9.07271L11.9473 8.16234L11.0356 8.56539L11.44 9.48ZM12.76 12.44L13.1615 13.3559L14.0832 12.9518L13.6733 12.0327L12.76 12.44ZM9.84 13.72L9.43852 12.8041L8.89052 13.0443L8.84314 13.6408L9.84 13.72ZM9.16 22.28L10.008 22.81L10.1375 22.6028L10.1569 22.3592L9.16 22.28ZM8.36 23.56L8.86932 24.4206L9.07892 24.2965L9.208 24.09L8.36 23.56ZM6.4 24.72L5.89068 23.8594L4.07787 24.9323L6.05518 25.6587L6.4 24.72ZM8.36 25.44L9.21027 24.9136L9.02867 24.6203L8.70482 24.5013L8.36 25.44ZM9.4 27.12L10.3927 27.241L10.4351 26.8923L10.2503 26.5936L9.4 27.12ZM8.24 36.64L7.24734 36.519L7.163 37.2112L7.78332 37.5296L8.24 36.64ZM14.24 39.72L15.1241 40.1873L15.597 39.2926L14.6967 38.8304L14.24 39.72ZM12.76 42.52L12.3046 43.4103L13.183 43.8596L13.6441 42.9873L12.76 42.52ZM6.6854 38.4952L5.8454 36.8952L4.0746 37.8248L4.9146 39.4248L6.6854 38.4952ZM5.95335 37.4751L7.03335 28.1551L5.04665 27.9249L3.96665 37.2449L5.95335 37.4751ZM6.38701 27.1021L2.38701 25.6221L1.69299 27.4979L5.69299 28.9779L6.38701 27.1021ZM3.03664 26.4781L2.79664 23.5581L0.803361 23.7219L1.04336 26.6419L3.03664 26.4781ZM2.30845 24.5011L6.50845 22.0211L5.49155 20.2989L1.29155 22.7789L2.30845 24.5011ZM6.99655 21.243L7.71655 12.603L5.72345 12.437L5.00345 21.077L6.99655 21.243ZM7.54828 13.0803L8.46828 11.7203L6.81172 10.5997L5.89172 11.9597L7.54828 13.0803ZM8.04435 12.0746L11.8444 10.3946L11.0356 8.56539L7.23565 10.2454L8.04435 12.0746ZM10.5267 9.88728L11.8467 12.8473L13.6733 12.0327L12.3533 9.07271L10.5267 9.88728ZM12.3585 11.5241L9.43852 12.8041L10.2415 14.6359L13.1615 13.3559L12.3585 11.5241ZM8.84314 13.6408L8.16314 22.2008L10.1569 22.3592L10.8369 13.7992L8.84314 13.6408ZM8.312 21.75L7.512 23.03L9.208 24.09L10.008 22.81L8.312 21.75ZM7.85068 22.6994L5.89068 23.8594L6.90932 25.5806L8.86932 24.4206L7.85068 22.6994ZM6.05518 25.6587L8.01518 26.3787L8.70482 24.5013L6.74482 23.7813L6.05518 25.6587ZM7.50974 25.9664L8.54974 27.6464L10.2503 26.5936L9.21027 24.9136L7.50974 25.9664ZM8.40734 26.999L7.24734 36.519L9.23266 36.761L10.3927 27.241L8.40734 26.999ZM7.78332 37.5296L13.7833 40.6096L14.6967 38.8304L8.69668 35.7504L7.78332 37.5296ZM13.3559 39.2527L11.8759 42.0527L13.6441 42.9873L15.1241 40.1873L13.3559 39.2527ZM13.2154 41.6297L6.25538 38.0697L5.34462 39.8503L12.3046 43.4103L13.2154 41.6297ZM14.6422 34.48L14.3631 33.5197L13.3846 33.8041L13.6873 34.7771L14.6422 34.48ZM24.0022 31.76L24.2812 32.7203L25.0253 32.5041L25.0017 31.7296L24.0022 31.76ZM23.4422 13.36L24.4417 13.3296L24.4144 12.4323L23.5194 12.363L23.4422 13.36ZM17.2422 12.88L16.2459 12.7943L16.1594 13.7992L17.165 13.877L17.2422 12.88ZM17.5622 9.16L17.6309 8.16236L16.6501 8.09481L16.5659 9.07429L17.5622 9.16ZM33.2422 10.24L34.2402 10.303L34.3029 9.31069L33.3109 9.24236L33.2422 10.24ZM33.0022 14.04L32.9329 15.0376L33.9368 15.1073L34.0002 14.103L33.0022 14.04ZM27.2422 13.64L27.3115 12.6424L26.2086 12.5658L26.2427 13.6708L27.2422 13.64ZM27.8422 33.08L28.6524 33.6661L28.8522 33.3899L28.8417 33.0492L27.8422 33.08ZM26.4822 34.96L26.7616 35.9202L27.0912 35.8242L27.2924 35.5461L26.4822 34.96ZM15.7622 38.08L14.8073 38.3771L15.099 39.3145L16.0416 39.0402L15.7622 38.08ZM14.9212 35.4403L24.2812 32.7203L23.7231 30.7997L14.3631 33.5197L14.9212 35.4403ZM25.0017 31.7296L24.4417 13.3296L22.4427 13.3904L23.0027 31.7904L25.0017 31.7296ZM23.5194 12.363L17.3194 11.883L17.165 13.877L23.365 14.357L23.5194 12.363ZM18.2385 12.9657L18.5585 9.2457L16.5659 9.07429L16.2459 12.7943L18.2385 12.9657ZM17.4935 10.1576L33.1735 11.2376L33.3109 9.24236L17.6309 8.16236L17.4935 10.1576ZM32.2442 10.177L32.0042 13.977L34.0002 14.103L34.2402 10.303L32.2442 10.177ZM33.0715 13.0424L27.3115 12.6424L27.1729 14.6376L32.9329 15.0376L33.0715 13.0424ZM26.2427 13.6708L26.8427 33.1108L28.8417 33.0492L28.2417 13.6091L26.2427 13.6708ZM27.032 32.4939L25.672 34.3739L27.2924 35.5461L28.6524 33.6661L27.032 32.4939ZM26.2027 33.9998L15.4827 37.1198L16.0416 39.0402L26.7616 35.9202L26.2027 33.9998ZM16.717 37.7829L15.597 34.1829L13.6873 34.7771L14.8073 38.3771L16.717 37.7829ZM47.3866 25.84L48.1132 25.153L47.4114 24.4107L46.6842 25.1281L47.3866 25.84ZM35.4666 37.6L34.7542 38.3018L35.4565 39.0147L36.1689 38.3119L35.4666 37.6ZM32.8266 34.92L32.1242 34.2081L31.4129 34.9099L32.1142 35.6218L32.8266 34.92ZM44.7866 23.12L45.4889 23.8319L46.1842 23.1459L45.5148 22.4346L44.7866 23.12ZM35.8266 13.6L35.1523 12.8615L34.4025 13.5461L35.0984 14.2854L35.8266 13.6ZM38.5866 11.08L39.3135 10.3933L38.6383 9.6786L37.9123 10.3415L38.5866 11.08ZM47.4666 20.48L46.7396 21.1667L47.441 21.9091L48.1685 21.1923L47.4666 20.48ZM58.4266 9.68L59.139 8.97823L58.4371 8.26571L57.7247 8.96771L58.4266 9.68ZM61.0666 12.36L61.7685 13.0723L62.4806 12.3705L61.779 11.6582L61.0666 12.36ZM50.0666 23.2L49.3647 22.4877L48.6669 23.1753L49.34 23.8871L50.0666 23.2ZM61.1866 34.96L61.8775 35.6829L62.5965 34.9956L61.9132 34.2729L61.1866 34.96ZM58.4666 37.56L57.7399 38.247L58.4307 38.9777L59.1575 38.2829L58.4666 37.56ZM46.6842 25.1281L34.7642 36.8881L36.1689 38.3119L48.0889 26.5519L46.6842 25.1281ZM36.179 36.8982L33.539 34.2182L32.1142 35.6218L34.7542 38.3018L36.179 36.8982ZM33.5289 35.6319L45.4889 23.8319L44.0842 22.4081L32.1242 34.2081L33.5289 35.6319ZM45.5148 22.4346L36.5548 12.9146L35.0984 14.2854L44.0584 23.8054L45.5148 22.4346ZM36.5008 14.3385L39.2608 11.8185L37.9123 10.3415L35.1523 12.8615L36.5008 14.3385ZM37.8596 11.7667L46.7396 21.1667L48.1935 19.7933L39.3135 10.3933L37.8596 11.7667ZM48.1685 21.1923L59.1285 10.3923L57.7247 8.96771L46.7647 19.7677L48.1685 21.1923ZM57.7142 10.3818L60.3542 13.0618L61.779 11.6582L59.139 8.97823L57.7142 10.3818ZM60.3647 11.6477L49.3647 22.4877L50.7685 23.9123L61.7685 13.0723L60.3647 11.6477ZM49.34 23.8871L60.46 35.6471L61.9132 34.2729L50.7932 22.5129L49.34 23.8871ZM60.4956 34.2371L57.7756 36.8371L59.1575 38.2829L61.8775 35.6829L60.4956 34.2371ZM59.1932 36.873L48.1132 25.153L46.6599 26.527L57.7399 38.247L59.1932 36.873ZM60.7969 39.64L60.3688 38.7363L59.4559 39.1687L59.8975 40.0772L60.7969 39.64ZM65.3569 37.48L65.785 38.3837L66.4364 38.0751L66.3496 37.3595L65.3569 37.48ZM64.3569 29.24L63.4301 28.8643L63.333 29.1039L63.3642 29.3605L64.3569 29.24ZM64.9569 27.76L64.3338 26.9778L64.1287 27.1412L64.0301 27.3843L64.9569 27.76ZM67.3169 25.88L67.94 26.6622L68.8369 25.9476L68.007 25.1563L67.3169 25.88ZM65.5969 24.24L64.6684 24.6114L64.7492 24.8135L64.9068 24.9637L65.5969 24.24ZM65.1169 23.04L64.1169 23.0304L64.115 23.228L64.1884 23.4114L65.1169 23.04ZM65.1969 14.68L66.1968 14.6896L66.2033 14.0147L65.5799 13.7563L65.1969 14.68ZM61.9169 13.32L60.98 12.9702L60.6426 13.8742L61.5339 14.2437L61.9169 13.32ZM63.0369 10.32L63.401 9.38863L62.4552 9.01892L62.1 9.97024L63.0369 10.32ZM67.4369 12.04L68.2723 11.4904L68.0974 11.2245L67.801 11.1086L67.4369 12.04ZM68.4369 13.56L69.4368 13.5691L69.4396 13.2647L69.2723 13.0104L68.4369 13.56ZM68.3569 22.36L67.3569 22.3509L67.353 22.7801L67.6615 23.0786L68.3569 22.36ZM70.8369 24.76L71.8364 24.7922L71.8506 24.3495L71.5323 24.0414L70.8369 24.76ZM70.7569 27.24L71.3791 28.0228L71.7414 27.7348L71.7564 27.2722L70.7569 27.24ZM67.6369 29.72L67.0146 28.9372L66.5791 29.2834L66.6436 29.836L67.6369 29.72ZM68.6369 38.28L69.518 38.7528L69.6666 38.476L69.6301 38.164L68.6369 38.28ZM67.7569 39.92L68.1805 40.8258L68.4811 40.6853L68.638 40.3928L67.7569 39.92ZM62.1969 42.52L61.2975 42.9572L61.7282 43.8431L62.6205 43.4259L62.1969 42.52ZM61.225 40.5437L65.785 38.3837L64.9288 36.5763L60.3688 38.7363L61.225 40.5437ZM66.3496 37.3595L65.3496 29.1195L63.3642 29.3605L64.3642 37.6005L66.3496 37.3595ZM65.2836 29.6157L65.8836 28.1357L64.0301 27.3843L63.4301 28.8643L65.2836 29.6157ZM65.58 28.5422L67.94 26.6622L66.6938 25.0978L64.3338 26.9778L65.58 28.5422ZM68.007 25.1563L66.287 23.5163L64.9068 24.9637L66.6268 26.6037L68.007 25.1563ZM66.5254 23.8686L66.0454 22.6686L64.1884 23.4114L64.6684 24.6114L66.5254 23.8686ZM66.1168 23.0496L66.1968 14.6896L64.1969 14.6704L64.1169 23.0304L66.1168 23.0496ZM65.5799 13.7563L62.2999 12.3963L61.5339 14.2437L64.8139 15.6037L65.5799 13.7563ZM62.8537 13.6698L63.9737 10.6698L62.1 9.97024L60.98 12.9702L62.8537 13.6698ZM62.6728 11.2514L67.0728 12.9714L67.801 11.1086L63.401 9.38863L62.6728 11.2514ZM66.6015 12.5896L67.6015 14.1096L69.2723 13.0104L68.2723 11.4904L66.6015 12.5896ZM67.4369 13.5509L67.3569 22.3509L69.3568 22.3691L69.4368 13.5691L67.4369 13.5509ZM67.6615 23.0786L70.1415 25.4786L71.5323 24.0414L69.0523 21.6414L67.6615 23.0786ZM69.8374 24.7278L69.7574 27.2078L71.7564 27.2722L71.8364 24.7922L69.8374 24.7278ZM70.1346 26.4572L67.0146 28.9372L68.2591 30.5028L71.3791 28.0228L70.1346 26.4572ZM66.6436 29.836L67.6436 38.396L69.6301 38.164L68.6301 29.604L66.6436 29.836ZM67.7557 37.8072L66.8757 39.4472L68.638 40.3928L69.518 38.7528L67.7557 37.8072ZM67.3333 39.0142L61.7733 41.6142L62.6205 43.4259L68.1805 40.8258L67.3333 39.0142ZM63.0962 42.0828L61.6962 39.2028L59.8975 40.0772L61.2975 42.9572L63.0962 42.0828Z" fill="black"/>
<defs>
<filter id="filter0_i_118_92" x="3.74225" y="9.16003" width="69.0369" height="37.36" filterUnits="userSpaceOnUse" color-interpolation-filters="sRGB">
<feFlood flood-opacity="0" result="BackgroundImageFix"/>
<feBlend mode="normal" in="SourceGraphic" in2="BackgroundImageFix" result="shape"/>
<feColorMatrix in="SourceAlpha" type="matrix" values="0 0 0 0 0 0 0 0 0 0 0 0 0 0 0 0 0 0 127 0" result="hardAlpha"/>
<feOffset dy="4"/>
<feGaussianBlur stdDeviation="2"/>
<feComposite in2="hardAlpha" operator="arithmetic" k2="-1" k3="1"/>
<feColorMatrix type="matrix" values="0 0 0 0 0 0 0 0 0 0 0 0 0 0 0 0 0 0 0.25 0"/>
<feBlend mode="normal" in2="shape" result="effect1_innerShadow_118_92"/>
</filter>
<filter id="filter1_i_118_92" x="1.79999" y="9.16003" width="69.0369" height="37.36" filterUnits="userSpaceOnUse" color-interpolation-filters="sRGB">
<feFlood flood-opacity="0" result="BackgroundImageFix"/>
<feBlend mode="normal" in="SourceGraphic" in2="BackgroundImageFix" result="shape"/>
<feColorMatrix in="SourceAlpha" type="matrix" values="0 0 0 0 0 0 0 0 0 0 0 0 0 0 0 0 0 0 127 0" result="hardAlpha"/>
<feOffset dy="4"/>
<feGaussianBlur stdDeviation="2"/>
<feComposite in2="hardAlpha" operator="arithmetic" k2="-1" k3="1"/>
<feColorMatrix type="matrix" values="0 0 0 0 0 0 0 0 0 0 0 0 0 0 0 0 0 0 0.25 0"/>
<feBlend mode="normal" in2="shape" result="effect1_innerShadow_118_92"/>
</filter>
</defs>
</svg>
