<svg width="32" height="10" viewBox="0 0 32 10" fill="none" xmlns="http://www.w3.org/2000/svg">
<path fill-rule="evenodd" clip-rule="evenodd" d="M0.639 1.50828C0.286 2.42828 1.036 3.64328 2.583 4.65728C4.484 5.90228 4.814 6.57828 3.926 7.40928C3.066 8.21428 2.627 8.17428 2.292 7.26028C1.641 5.48428 0 5.70928 0 7.57328C0 8.73428 0.835 9.05628 3.242 8.82328C7.462 8.41528 8.1 5.65028 4.418 3.72128C2.394 2.66028 2.05 2.09728 3.048 1.48028C3.852 0.984281 4.539 1.12728 4.776 1.83928C5.213 3.15028 7 2.43728 7 0.951281C7 -0.617719 1.262 -0.115719 0.639 1.50828ZM10.667 0.760281C10.418 1.17228 9.515 3.19828 8.659 5.26028C7.162 8.86528 7.18 9.01028 9.11 9.01028C10.214 9.01028 10.84 8.56028 10.5 8.01028C10.16 7.46028 10.61 7.01028 11.5 7.01028C12.39 7.01028 12.84 7.46028 12.5 8.01028C12.16 8.56028 12.753 9.01028 13.817 9.01028C15.684 9.01028 15.695 8.85128 14.134 4.51028C12.578 0.183281 11.631 -0.841719 10.667 0.760281ZM17.671 4.55728C19.437 9.74228 20.862 9.87628 22.5 5.01028C24.226 -0.115719 26.325 -0.192719 25.84 4.88828C25.452 8.95928 25.488 9.01028 28.724 9.01028C30.526 9.01028 32 8.53028 32 7.94328C32 7.33028 31.147 7.14628 30 7.51028C28.609 7.95128 28 7.69028 28 6.65128C28 5.82928 28.788 4.95128 29.75 4.69928C31.417 4.26428 31.417 4.23628 29.75 4.12628C28.788 4.06228 28 3.30528 28 2.44328C28 1.33028 28.581 1.06028 30 1.51028C31.147 1.87428 32 1.69028 32 1.07728C32 0.449281 29.714 0.010281 26.441 0.010281C23.367 0.010281 21.133 0.416281 21.443 0.918281C21.751 1.41728 21.617 2.87228 21.143 4.15128L20.283 6.47728L19.577 4.25328C19.189 3.02928 19.152 1.57428 19.494 1.01928C19.837 0.464281 19.219 0.010281 18.12 0.010281C16.188 0.010281 16.173 0.161281 17.671 4.55728Z" fill="white"/>
</svg>
